<?xml version="1.0" encoding="UTF-8"?>
<svg xmlns="http://www.w3.org/2000/svg" xmlns:xlink="http://www.w3.org/1999/xlink" width="16px" height="16px" viewBox="0 0 16 16" version="1.1">
<g id="surface1">
<path style=" stroke:none;fill-rule:nonzero;fill:rgb(0%,0%,0%);fill-opacity:1;" d="M 0 0 C 5.28125 0 10.558594 0 16 0 C 16 5.28125 16 10.558594 16 16 C 10.71875 16 5.441406 16 0 16 C 0 10.71875 0 5.441406 0 0 Z M 0 0 "/>
<path style=" stroke:none;fill-rule:nonzero;fill:rgb(90.196079%,90.980393%,91.37255%);fill-opacity:1;" d="M 4.703125 2.960938 C 4.714844 2.960938 4.730469 2.960938 4.742188 2.960938 C 4.824219 2.960938 4.90625 2.964844 4.992188 2.972656 C 4.996094 2.972656 5.003906 2.976562 5.007812 2.976562 C 5.019531 2.976562 5.03125 2.976562 5.042969 2.980469 C 5.0625 2.980469 5.078125 2.984375 5.097656 2.984375 C 5.164062 2.992188 5.226562 3 5.292969 3.015625 C 5.308594 3.019531 5.328125 3.019531 5.347656 3.023438 C 5.414062 3.035156 5.480469 3.050781 5.542969 3.066406 C 5.546875 3.070312 5.554688 3.070312 5.558594 3.070312 C 5.601562 3.082031 5.640625 3.09375 5.683594 3.105469 C 5.691406 3.109375 5.699219 3.109375 5.707031 3.113281 C 5.753906 3.125 5.804688 3.140625 5.851562 3.160156 C 5.859375 3.164062 5.871094 3.167969 5.882812 3.171875 C 5.996094 3.210938 6.109375 3.261719 6.222656 3.3125 C 6.230469 3.316406 6.242188 3.320312 6.25 3.328125 C 6.507812 3.449219 6.753906 3.605469 6.972656 3.789062 C 6.980469 3.796875 6.988281 3.804688 6.996094 3.8125 C 7.058594 3.863281 7.117188 3.917969 7.175781 3.976562 C 7.179688 3.984375 7.1875 3.988281 7.191406 3.992188 C 7.222656 4.023438 7.25 4.054688 7.277344 4.089844 C 7.289062 4.101562 7.296875 4.113281 7.308594 4.121094 C 7.382812 4.203125 7.445312 4.296875 7.503906 4.386719 C 7.503906 4.390625 7.507812 4.394531 7.507812 4.394531 C 7.582031 4.515625 7.644531 4.644531 7.695312 4.777344 C 7.703125 4.765625 7.707031 4.753906 7.714844 4.738281 C 7.714844 4.734375 7.71875 4.730469 7.71875 4.726562 C 7.722656 4.71875 7.722656 4.71875 7.726562 4.710938 C 7.8125 4.5 7.933594 4.308594 8.078125 4.132812 C 8.082031 4.128906 8.082031 4.128906 8.085938 4.125 C 8.140625 4.058594 8.199219 3.996094 8.261719 3.9375 C 8.261719 3.933594 8.265625 3.933594 8.269531 3.929688 C 8.296875 3.902344 8.324219 3.875 8.351562 3.851562 C 8.359375 3.84375 8.367188 3.835938 8.375 3.828125 C 8.394531 3.808594 8.417969 3.792969 8.4375 3.777344 C 8.449219 3.765625 8.460938 3.757812 8.472656 3.75 C 8.515625 3.714844 8.558594 3.679688 8.605469 3.644531 C 8.617188 3.640625 8.625 3.632812 8.636719 3.625 C 8.71875 3.566406 8.804688 3.511719 8.890625 3.460938 C 8.898438 3.457031 8.898438 3.457031 8.902344 3.453125 C 9.148438 3.3125 9.40625 3.195312 9.679688 3.117188 C 9.683594 3.113281 9.6875 3.113281 9.691406 3.109375 C 9.726562 3.101562 9.757812 3.089844 9.792969 3.082031 C 9.796875 3.082031 9.800781 3.078125 9.804688 3.078125 C 9.921875 3.046875 10.042969 3.023438 10.164062 3.003906 C 10.171875 3 10.183594 3 10.195312 2.996094 C 10.25 2.988281 10.300781 2.980469 10.355469 2.976562 C 10.367188 2.976562 10.378906 2.972656 10.394531 2.972656 C 10.484375 2.964844 10.578125 2.960938 10.671875 2.960938 C 10.675781 2.960938 10.683594 2.960938 10.6875 2.960938 C 10.796875 2.960938 10.90625 2.964844 11.015625 2.980469 C 11.027344 2.980469 11.035156 2.980469 11.046875 2.984375 C 11.21875 3.003906 11.398438 3.042969 11.558594 3.105469 C 11.566406 3.109375 11.570312 3.109375 11.574219 3.113281 C 11.660156 3.144531 11.742188 3.179688 11.824219 3.222656 C 11.828125 3.222656 11.832031 3.226562 11.835938 3.226562 C 12.023438 3.320312 12.191406 3.453125 12.335938 3.601562 C 12.34375 3.609375 12.351562 3.613281 12.359375 3.621094 C 12.390625 3.652344 12.421875 3.6875 12.449219 3.71875 C 12.457031 3.730469 12.460938 3.738281 12.46875 3.746094 C 12.523438 3.8125 12.570312 3.878906 12.617188 3.949219 C 12.617188 3.953125 12.621094 3.957031 12.621094 3.960938 C 12.664062 4.03125 12.703125 4.101562 12.742188 4.175781 C 12.742188 4.183594 12.742188 4.183594 12.746094 4.191406 C 12.808594 4.316406 12.859375 4.449219 12.898438 4.585938 C 12.898438 4.585938 12.902344 4.589844 12.902344 4.59375 C 12.910156 4.621094 12.914062 4.644531 12.921875 4.671875 C 12.925781 4.675781 12.925781 4.679688 12.925781 4.683594 C 12.945312 4.757812 12.960938 4.828125 12.972656 4.902344 C 12.976562 4.917969 12.980469 4.929688 12.980469 4.945312 C 12.984375 4.960938 12.988281 4.976562 12.988281 4.992188 C 12.992188 5 12.992188 5 12.992188 5.011719 C 13.003906 5.070312 13.011719 5.132812 13.015625 5.195312 C 13.019531 5.214844 13.019531 5.230469 13.023438 5.25 C 13.039062 5.402344 13.042969 5.550781 13.042969 5.707031 C 13.042969 5.71875 13.042969 5.730469 13.042969 5.746094 C 13.042969 5.875 13.042969 6 13.03125 6.128906 C 13.027344 6.140625 13.027344 6.148438 13.027344 6.160156 C 13.023438 6.191406 13.019531 6.222656 13.015625 6.257812 C 13.015625 6.273438 13.011719 6.289062 13.011719 6.304688 C 13.003906 6.371094 12.996094 6.4375 12.984375 6.503906 C 12.984375 6.511719 12.984375 6.515625 12.984375 6.519531 C 12.976562 6.554688 12.96875 6.589844 12.964844 6.625 C 12.960938 6.636719 12.957031 6.644531 12.957031 6.65625 C 12.925781 6.816406 12.890625 6.976562 12.84375 7.132812 C 12.84375 7.136719 12.839844 7.140625 12.839844 7.144531 C 12.835938 7.160156 12.832031 7.171875 12.828125 7.1875 C 12.824219 7.195312 12.820312 7.207031 12.816406 7.21875 C 12.816406 7.222656 12.8125 7.226562 12.8125 7.234375 C 12.808594 7.246094 12.804688 7.257812 12.800781 7.269531 C 12.78125 7.335938 12.757812 7.398438 12.734375 7.464844 C 12.730469 7.472656 12.730469 7.472656 12.730469 7.484375 C 12.714844 7.527344 12.695312 7.570312 12.679688 7.613281 C 12.675781 7.621094 12.671875 7.632812 12.667969 7.640625 C 12.664062 7.648438 12.660156 7.65625 12.660156 7.664062 C 12.65625 7.667969 12.65625 7.667969 12.65625 7.671875 C 12.644531 7.695312 12.636719 7.722656 12.625 7.746094 C 12.621094 7.761719 12.621094 7.765625 12.625 7.78125 C 12.632812 7.792969 12.632812 7.792969 12.640625 7.800781 C 12.644531 7.804688 12.648438 7.808594 12.652344 7.8125 C 12.65625 7.816406 12.660156 7.820312 12.664062 7.824219 C 12.667969 7.828125 12.671875 7.832031 12.675781 7.835938 C 12.6875 7.847656 12.699219 7.859375 12.710938 7.871094 C 12.726562 7.882812 12.738281 7.894531 12.75 7.910156 C 12.773438 7.929688 12.792969 7.953125 12.816406 7.972656 C 12.847656 8.003906 12.878906 8.035156 12.910156 8.066406 C 12.960938 8.117188 13.011719 8.167969 13.0625 8.21875 C 13.113281 8.269531 13.160156 8.320312 13.210938 8.367188 C 13.214844 8.371094 13.21875 8.375 13.21875 8.378906 C 13.234375 8.394531 13.25 8.410156 13.265625 8.421875 C 13.394531 8.550781 13.519531 8.675781 13.648438 8.804688 C 13.621094 8.835938 13.59375 8.863281 13.566406 8.890625 C 13.558594 8.898438 13.554688 8.902344 13.546875 8.910156 C 13.535156 8.921875 13.519531 8.9375 13.503906 8.953125 C 13.488281 8.96875 13.472656 8.984375 13.453125 9.003906 C 13.425781 9.03125 13.398438 9.058594 13.371094 9.085938 C 13.328125 9.128906 13.289062 9.167969 13.25 9.207031 C 13.183594 9.273438 13.117188 9.339844 13.050781 9.40625 C 12.988281 9.46875 12.921875 9.535156 12.859375 9.597656 C 12.851562 9.605469 12.851562 9.605469 12.847656 9.609375 C 12.828125 9.628906 12.808594 9.648438 12.785156 9.667969 C 12.621094 9.835938 12.457031 10 12.292969 10.164062 C 12.300781 10.179688 12.3125 10.191406 12.324219 10.207031 C 12.328125 10.207031 12.328125 10.207031 12.332031 10.210938 C 12.339844 10.21875 12.347656 10.226562 12.355469 10.234375 C 12.363281 10.242188 12.367188 10.246094 12.371094 10.25 C 12.386719 10.265625 12.402344 10.28125 12.417969 10.296875 C 12.433594 10.3125 12.453125 10.332031 12.46875 10.347656 C 12.496094 10.375 12.523438 10.402344 12.554688 10.433594 C 12.59375 10.472656 12.636719 10.515625 12.675781 10.554688 C 12.746094 10.625 12.8125 10.691406 12.878906 10.757812 C 12.945312 10.824219 13.007812 10.886719 13.074219 10.953125 C 13.078125 10.957031 13.082031 10.960938 13.085938 10.964844 C 13.105469 10.984375 13.125 11.003906 13.148438 11.023438 C 13.3125 11.191406 13.480469 11.359375 13.648438 11.527344 C 13.621094 11.558594 13.589844 11.589844 13.558594 11.621094 C 13.554688 11.625 13.546875 11.632812 13.539062 11.636719 C 13.523438 11.65625 13.507812 11.671875 13.492188 11.6875 C 13.472656 11.707031 13.453125 11.726562 13.4375 11.742188 C 13.40625 11.773438 13.375 11.804688 13.34375 11.835938 C 13.296875 11.882812 13.25 11.925781 13.207031 11.972656 C 13.132812 12.046875 13.058594 12.121094 12.984375 12.195312 C 12.914062 12.265625 12.84375 12.335938 12.769531 12.410156 C 12.765625 12.414062 12.761719 12.417969 12.757812 12.421875 C 12.734375 12.445312 12.714844 12.464844 12.691406 12.488281 C 12.507812 12.671875 12.324219 12.855469 12.140625 13.039062 C 12.121094 13.027344 12.105469 13.015625 12.09375 13 C 12.089844 12.996094 12.085938 12.996094 12.082031 12.992188 C 12.074219 12.984375 12.066406 12.972656 12.054688 12.964844 C 12.046875 12.957031 12.042969 12.949219 12.035156 12.941406 C 12.019531 12.925781 12.003906 12.914062 11.988281 12.898438 C 11.964844 12.875 11.941406 12.851562 11.917969 12.828125 C 11.882812 12.789062 11.84375 12.753906 11.808594 12.714844 C 11.742188 12.648438 11.675781 12.582031 11.609375 12.515625 C 11.585938 12.492188 11.5625 12.46875 11.539062 12.445312 C 11.523438 12.429688 11.507812 12.417969 11.496094 12.402344 C 11.488281 12.394531 11.480469 12.386719 11.472656 12.382812 C 11.429688 12.335938 11.429688 12.335938 11.382812 12.296875 C 11.375 12.289062 11.367188 12.277344 11.355469 12.269531 C 11.351562 12.265625 11.351562 12.265625 11.347656 12.257812 C 11.34375 12.253906 11.339844 12.25 11.335938 12.246094 C 11.332031 12.242188 11.328125 12.238281 11.324219 12.234375 C 11.316406 12.226562 11.304688 12.21875 11.296875 12.210938 C 11.285156 12.199219 11.273438 12.1875 11.261719 12.175781 C 11.253906 12.167969 11.246094 12.15625 11.238281 12.148438 C 11.234375 12.148438 11.230469 12.144531 11.226562 12.140625 C 11.222656 12.136719 11.21875 12.132812 11.214844 12.128906 C 11.210938 12.125 11.210938 12.121094 11.207031 12.121094 C 11.199219 12.113281 11.199219 12.113281 11.199219 12.101562 C 11.195312 12.101562 11.195312 12.097656 11.191406 12.097656 C 11.179688 12.09375 11.171875 12.085938 11.164062 12.074219 C 11.160156 12.074219 11.15625 12.070312 11.152344 12.066406 C 11.148438 12.0625 11.148438 12.058594 11.144531 12.054688 C 11.140625 12.054688 11.136719 12.050781 11.132812 12.046875 C 11.128906 12.042969 11.125 12.039062 11.125 12.035156 C 11.121094 12.035156 11.117188 12.03125 11.113281 12.027344 C 11.109375 12.019531 11.109375 12.019531 11.109375 12.011719 C 11.105469 12.007812 11.101562 12.007812 11.101562 12.007812 C 11.085938 12 11.078125 11.992188 11.070312 11.980469 C 11.0625 11.976562 11.0625 11.976562 11.058594 11.972656 C 11.050781 11.960938 11.050781 11.960938 11.050781 11.953125 C 11.046875 11.953125 11.046875 11.953125 11.042969 11.949219 C 11.03125 11.945312 11.03125 11.945312 11.027344 11.929688 C 11.019531 11.925781 11.015625 11.921875 11.007812 11.917969 C 11 11.914062 11 11.914062 10.992188 11.90625 C 10.992188 11.902344 10.992188 11.898438 10.992188 11.894531 C 10.988281 11.894531 10.988281 11.894531 10.984375 11.890625 C 10.972656 11.886719 10.972656 11.886719 10.96875 11.871094 C 10.964844 11.871094 10.960938 11.871094 10.960938 11.871094 C 10.960938 11.867188 10.960938 11.867188 10.960938 11.863281 C 10.953125 11.859375 10.949219 11.859375 10.945312 11.855469 C 10.945312 11.855469 10.945312 11.851562 10.945312 11.847656 C 10.941406 11.847656 10.9375 11.847656 10.933594 11.847656 C 10.933594 11.84375 10.933594 11.839844 10.933594 11.839844 C 10.933594 11.839844 10.929688 11.839844 10.925781 11.839844 C 10.925781 11.835938 10.925781 11.832031 10.925781 11.828125 C 10.921875 11.828125 10.917969 11.824219 10.910156 11.824219 C 10.910156 11.820312 10.910156 11.816406 10.910156 11.8125 C 10.910156 11.8125 10.90625 11.8125 10.902344 11.8125 C 10.902344 11.8125 10.902344 11.808594 10.902344 11.804688 C 10.898438 11.804688 10.890625 11.800781 10.886719 11.800781 C 10.886719 11.796875 10.886719 11.792969 10.886719 11.789062 C 10.882812 11.789062 10.882812 11.789062 10.878906 11.789062 C 10.878906 11.785156 10.878906 11.785156 10.878906 11.78125 C 10.875 11.78125 10.871094 11.78125 10.867188 11.78125 C 10.867188 11.777344 10.867188 11.773438 10.867188 11.769531 C 10.863281 11.769531 10.859375 11.769531 10.855469 11.765625 C 10.855469 11.761719 10.855469 11.757812 10.855469 11.757812 C 10.851562 11.757812 10.847656 11.757812 10.84375 11.757812 C 10.84375 11.753906 10.84375 11.75 10.84375 11.746094 C 10.839844 11.746094 10.835938 11.742188 10.828125 11.742188 C 10.828125 11.738281 10.828125 11.734375 10.828125 11.730469 C 10.828125 11.730469 10.824219 11.730469 10.820312 11.730469 C 10.820312 11.730469 10.820312 11.726562 10.820312 11.722656 C 10.816406 11.722656 10.8125 11.722656 10.8125 11.722656 C 10.8125 11.71875 10.8125 11.714844 10.8125 11.714844 C 10.804688 11.710938 10.800781 11.710938 10.796875 11.707031 C 10.796875 11.707031 10.796875 11.703125 10.796875 11.699219 C 10.792969 11.699219 10.789062 11.699219 10.785156 11.699219 C 10.785156 11.695312 10.785156 11.691406 10.78125 11.6875 C 10.761719 11.691406 10.753906 11.703125 10.738281 11.714844 C 10.738281 11.71875 10.734375 11.71875 10.730469 11.722656 C 10.726562 11.730469 10.71875 11.738281 10.710938 11.746094 C 10.703125 11.75 10.699219 11.757812 10.691406 11.761719 C 10.675781 11.777344 10.660156 11.792969 10.648438 11.808594 C 10.628906 11.824219 10.613281 11.839844 10.597656 11.859375 C 10.570312 11.886719 10.539062 11.914062 10.511719 11.945312 C 10.46875 11.984375 10.429688 12.027344 10.386719 12.066406 C 10.320312 12.132812 10.253906 12.203125 10.1875 12.269531 C 10.121094 12.332031 10.058594 12.398438 9.992188 12.464844 C 9.988281 12.46875 9.984375 12.472656 9.980469 12.476562 C 9.960938 12.496094 9.9375 12.515625 9.917969 12.535156 C 9.753906 12.703125 9.585938 12.871094 9.417969 13.039062 C 9.402344 13.03125 9.394531 13.023438 9.382812 13.011719 C 9.378906 13.007812 9.375 13.003906 9.371094 13 C 9.367188 13 9.363281 12.996094 9.359375 12.992188 C 9.355469 12.988281 9.351562 12.984375 9.347656 12.976562 C 9.335938 12.96875 9.328125 12.957031 9.316406 12.945312 C 9.304688 12.933594 9.292969 12.921875 9.28125 12.910156 C 9.257812 12.890625 9.238281 12.867188 9.21875 12.847656 C 9.1875 12.816406 9.152344 12.78125 9.121094 12.75 C 9.109375 12.738281 9.097656 12.726562 9.089844 12.714844 C 9.085938 12.710938 9.085938 12.710938 9.078125 12.707031 C 9.046875 12.675781 9.015625 12.644531 8.984375 12.613281 C 8.980469 12.609375 8.980469 12.609375 8.976562 12.605469 C 8.929688 12.558594 8.882812 12.511719 8.835938 12.464844 C 8.789062 12.414062 8.742188 12.367188 8.691406 12.320312 C 8.664062 12.289062 8.632812 12.257812 8.605469 12.230469 C 8.582031 12.210938 8.5625 12.1875 8.542969 12.167969 C 8.53125 12.15625 8.519531 12.144531 8.507812 12.132812 C 8.496094 12.121094 8.484375 12.109375 8.46875 12.09375 C 8.464844 12.089844 8.460938 12.085938 8.457031 12.082031 C 8.441406 12.0625 8.441406 12.0625 8.414062 12.058594 C 8.402344 12.0625 8.390625 12.070312 8.375 12.078125 C 8.371094 12.082031 8.371094 12.082031 8.363281 12.085938 C 8.359375 12.085938 8.355469 12.089844 8.347656 12.09375 C 8.308594 12.117188 8.269531 12.140625 8.226562 12.164062 C 8.21875 12.167969 8.21875 12.167969 8.210938 12.171875 C 8.203125 12.175781 8.191406 12.179688 8.183594 12.1875 C 8.164062 12.195312 8.148438 12.207031 8.128906 12.214844 C 8.074219 12.246094 8.019531 12.277344 7.964844 12.304688 C 7.953125 12.3125 7.9375 12.320312 7.921875 12.328125 C 7.886719 12.347656 7.847656 12.367188 7.804688 12.386719 C 7.789062 12.394531 7.773438 12.402344 7.757812 12.410156 C 7.753906 12.414062 7.75 12.414062 7.746094 12.417969 C 7.738281 12.421875 7.734375 12.425781 7.726562 12.429688 C 7.714844 12.433594 7.707031 12.4375 7.691406 12.4375 C 7.675781 12.429688 7.664062 12.425781 7.652344 12.417969 C 7.644531 12.414062 7.636719 12.414062 7.632812 12.410156 C 7.609375 12.398438 7.582031 12.386719 7.558594 12.375 C 7.554688 12.371094 7.550781 12.367188 7.546875 12.367188 C 7.492188 12.339844 7.433594 12.308594 7.378906 12.28125 C 7.351562 12.261719 7.320312 12.246094 7.292969 12.230469 C 7.230469 12.199219 7.171875 12.167969 7.113281 12.132812 C 7.101562 12.125 7.089844 12.121094 7.074219 12.113281 C 7.003906 12.070312 6.929688 12.03125 6.859375 11.988281 C 6.855469 11.984375 6.855469 11.984375 6.847656 11.980469 C 6.75 11.921875 6.65625 11.863281 6.558594 11.800781 C 6.546875 11.792969 6.535156 11.789062 6.523438 11.78125 C 6.441406 11.726562 6.355469 11.671875 6.273438 11.617188 C 6.257812 11.609375 6.246094 11.597656 6.234375 11.589844 C 6.160156 11.542969 6.089844 11.492188 6.019531 11.445312 C 6.015625 11.441406 6.011719 11.4375 6.007812 11.4375 C 5.996094 11.425781 5.984375 11.417969 5.972656 11.410156 C 5.96875 11.410156 5.964844 11.40625 5.960938 11.402344 C 5.851562 11.324219 5.742188 11.246094 5.632812 11.164062 C 5.617188 11.152344 5.597656 11.136719 5.582031 11.125 C 5.554688 11.101562 5.527344 11.082031 5.5 11.0625 C 5.496094 11.058594 5.488281 11.050781 5.480469 11.046875 C 5.441406 11.015625 5.398438 10.980469 5.355469 10.949219 C 5.335938 10.929688 5.316406 10.914062 5.292969 10.898438 C 5.265625 10.878906 5.238281 10.855469 5.214844 10.832031 C 5.199219 10.820312 5.1875 10.808594 5.171875 10.796875 C 5.144531 10.777344 5.117188 10.753906 5.089844 10.730469 C 5.082031 10.722656 5.074219 10.71875 5.066406 10.710938 C 5.011719 10.664062 4.960938 10.617188 4.90625 10.570312 C 4.871094 10.539062 4.871094 10.539062 4.839844 10.511719 C 4.820312 10.496094 4.800781 10.476562 4.785156 10.460938 C 4.769531 10.449219 4.753906 10.433594 4.738281 10.421875 C 4.710938 10.394531 4.679688 10.367188 4.648438 10.335938 C 4.640625 10.328125 4.632812 10.320312 4.621094 10.3125 C 4.578125 10.269531 4.53125 10.226562 4.488281 10.183594 C 4.480469 10.175781 4.472656 10.167969 4.464844 10.160156 C 4.453125 10.144531 4.4375 10.132812 4.421875 10.117188 C 4.402344 10.097656 4.382812 10.078125 4.367188 10.058594 C 4.351562 10.042969 4.335938 10.03125 4.320312 10.015625 C 4.316406 10.007812 4.308594 10 4.300781 9.996094 C 4.289062 9.984375 4.28125 9.976562 4.269531 9.964844 C 4.269531 9.960938 4.265625 9.960938 4.261719 9.957031 C 4.246094 9.941406 4.230469 9.921875 4.214844 9.902344 C 4.207031 9.894531 4.195312 9.886719 4.1875 9.878906 C 4.175781 9.867188 4.167969 9.855469 4.15625 9.84375 C 4.140625 9.824219 4.121094 9.804688 4.105469 9.785156 C 4.085938 9.765625 4.0625 9.742188 4.046875 9.71875 C 4.035156 9.710938 4.027344 9.699219 4.015625 9.6875 C 4 9.671875 3.988281 9.65625 3.972656 9.636719 C 3.957031 9.617188 3.941406 9.601562 3.925781 9.585938 C 3.90625 9.5625 3.890625 9.542969 3.871094 9.519531 C 3.859375 9.503906 3.847656 9.488281 3.832031 9.476562 C 3.8125 9.449219 3.792969 9.425781 3.773438 9.402344 C 3.761719 9.382812 3.746094 9.367188 3.730469 9.347656 C 3.699219 9.308594 3.667969 9.265625 3.636719 9.226562 C 3.621094 9.203125 3.605469 9.183594 3.585938 9.160156 C 3.554688 9.121094 3.523438 9.078125 3.496094 9.035156 C 3.492188 9.03125 3.492188 9.03125 3.488281 9.023438 C 3.371094 8.859375 3.261719 8.695312 3.160156 8.519531 C 3.15625 8.515625 3.152344 8.511719 3.152344 8.507812 C 3.078125 8.386719 3.011719 8.261719 2.945312 8.136719 C 2.941406 8.128906 2.9375 8.117188 2.933594 8.109375 C 2.871094 7.984375 2.8125 7.859375 2.757812 7.730469 C 2.757812 7.726562 2.757812 7.722656 2.753906 7.71875 C 2.742188 7.683594 2.726562 7.648438 2.710938 7.613281 C 2.707031 7.601562 2.703125 7.589844 2.699219 7.578125 C 2.6875 7.550781 2.679688 7.523438 2.671875 7.5 C 2.667969 7.496094 2.667969 7.496094 2.667969 7.488281 C 2.664062 7.484375 2.664062 7.484375 2.664062 7.480469 C 2.660156 7.472656 2.65625 7.460938 2.652344 7.453125 C 2.644531 7.433594 2.640625 7.414062 2.632812 7.394531 C 2.632812 7.390625 2.628906 7.386719 2.628906 7.382812 C 2.625 7.375 2.621094 7.363281 2.617188 7.351562 C 2.617188 7.347656 2.613281 7.34375 2.613281 7.339844 C 2.59375 7.277344 2.570312 7.214844 2.554688 7.152344 C 2.550781 7.144531 2.550781 7.140625 2.546875 7.132812 C 2.539062 7.101562 2.53125 7.070312 2.523438 7.035156 C 2.519531 7.015625 2.511719 6.992188 2.507812 6.972656 C 2.496094 6.9375 2.488281 6.902344 2.480469 6.867188 C 2.480469 6.867188 2.480469 6.863281 2.476562 6.859375 C 2.460938 6.78125 2.445312 6.703125 2.429688 6.625 C 2.429688 6.617188 2.425781 6.605469 2.425781 6.59375 C 2.398438 6.464844 2.386719 6.332031 2.371094 6.203125 C 2.371094 6.1875 2.371094 6.175781 2.367188 6.164062 C 2.355469 6.023438 2.351562 5.886719 2.351562 5.746094 C 2.351562 5.734375 2.351562 5.722656 2.351562 5.710938 C 2.351562 5.574219 2.355469 5.4375 2.367188 5.304688 C 2.367188 5.296875 2.367188 5.296875 2.367188 5.292969 C 2.371094 5.238281 2.378906 5.183594 2.386719 5.125 C 2.386719 5.125 2.386719 5.121094 2.386719 5.117188 C 2.398438 5.023438 2.414062 4.929688 2.433594 4.839844 C 2.433594 4.832031 2.4375 4.828125 2.4375 4.820312 C 2.441406 4.800781 2.445312 4.78125 2.449219 4.761719 C 2.453125 4.753906 2.453125 4.75 2.453125 4.742188 C 2.46875 4.6875 2.480469 4.628906 2.5 4.574219 C 2.511719 4.542969 2.519531 4.511719 2.53125 4.480469 C 2.535156 4.460938 2.542969 4.445312 2.550781 4.425781 C 2.550781 4.421875 2.550781 4.417969 2.554688 4.414062 C 2.585938 4.332031 2.617188 4.253906 2.65625 4.175781 C 2.65625 4.171875 2.660156 4.167969 2.660156 4.164062 C 2.726562 4.027344 2.808594 3.898438 2.902344 3.777344 C 2.910156 3.769531 2.914062 3.761719 2.921875 3.75 C 2.972656 3.6875 3.03125 3.628906 3.089844 3.570312 C 3.09375 3.566406 3.097656 3.558594 3.101562 3.554688 C 3.132812 3.523438 3.167969 3.492188 3.203125 3.464844 C 3.207031 3.460938 3.210938 3.457031 3.214844 3.453125 C 3.257812 3.417969 3.300781 3.386719 3.347656 3.355469 C 3.347656 3.351562 3.351562 3.351562 3.355469 3.347656 C 3.492188 3.253906 3.648438 3.167969 3.808594 3.117188 C 3.824219 3.113281 3.835938 3.105469 3.847656 3.101562 C 3.875 3.089844 3.898438 3.082031 3.921875 3.074219 C 3.925781 3.074219 3.929688 3.074219 3.9375 3.070312 C 3.984375 3.054688 4.03125 3.042969 4.082031 3.03125 C 4.09375 3.03125 4.105469 3.027344 4.117188 3.023438 C 4.152344 3.015625 4.183594 3.007812 4.21875 3.003906 C 4.222656 3.003906 4.226562 3 4.230469 3 C 4.238281 3 4.246094 2.996094 4.257812 2.996094 C 4.261719 2.996094 4.269531 2.996094 4.273438 2.992188 C 4.28125 2.992188 4.285156 2.992188 4.292969 2.992188 C 4.296875 2.992188 4.300781 2.992188 4.304688 2.988281 C 4.351562 2.984375 4.398438 2.976562 4.445312 2.972656 C 4.449219 2.972656 4.457031 2.972656 4.460938 2.972656 C 4.542969 2.964844 4.621094 2.960938 4.703125 2.960938 Z M 4.703125 2.960938 "/>
<path style=" stroke:none;fill-rule:nonzero;fill:rgb(0%,0%,0%);fill-opacity:1;" d="M 9.410156 7.902344 C 9.425781 7.910156 9.4375 7.917969 9.453125 7.933594 C 9.453125 7.9375 9.457031 7.9375 9.457031 7.941406 C 9.464844 7.949219 9.472656 7.957031 9.480469 7.964844 C 9.488281 7.96875 9.492188 7.972656 9.5 7.980469 C 9.511719 7.996094 9.527344 8.011719 9.542969 8.027344 C 9.558594 8.042969 9.578125 8.058594 9.59375 8.074219 C 9.621094 8.105469 9.652344 8.132812 9.679688 8.160156 C 9.71875 8.203125 9.761719 8.242188 9.804688 8.285156 C 9.871094 8.351562 9.9375 8.417969 10.003906 8.484375 C 10.070312 8.550781 10.132812 8.617188 10.199219 8.679688 C 10.203125 8.6875 10.207031 8.691406 10.210938 8.695312 C 10.230469 8.714844 10.25 8.734375 10.273438 8.753906 C 10.4375 8.921875 10.605469 9.089844 10.773438 9.253906 C 10.800781 9.230469 10.828125 9.203125 10.855469 9.175781 C 10.863281 9.171875 10.867188 9.164062 10.871094 9.160156 C 10.886719 9.144531 10.902344 9.132812 10.914062 9.117188 C 10.929688 9.101562 10.945312 9.085938 10.960938 9.074219 C 10.988281 9.046875 11.011719 9.019531 11.039062 8.992188 C 11.078125 8.953125 11.117188 8.917969 11.152344 8.878906 C 11.214844 8.816406 11.277344 8.753906 11.339844 8.691406 C 11.34375 8.6875 11.347656 8.6875 11.351562 8.683594 C 11.402344 8.628906 11.457031 8.578125 11.507812 8.523438 C 11.511719 8.519531 11.515625 8.515625 11.519531 8.511719 C 11.523438 8.507812 11.527344 8.503906 11.53125 8.5 C 11.59375 8.441406 11.652344 8.378906 11.714844 8.316406 C 11.753906 8.277344 11.792969 8.242188 11.828125 8.203125 C 11.855469 8.175781 11.882812 8.148438 11.90625 8.125 C 11.921875 8.109375 11.9375 8.09375 11.953125 8.078125 C 11.964844 8.066406 11.980469 8.050781 11.992188 8.039062 C 12 8.03125 12.003906 8.027344 12.007812 8.023438 C 12.015625 8.015625 12.023438 8.007812 12.027344 8.003906 C 12.03125 8 12.035156 7.996094 12.039062 7.992188 C 12.050781 7.984375 12.050781 7.984375 12.058594 7.984375 C 12.058594 7.980469 12.0625 7.976562 12.0625 7.972656 C 12.070312 7.964844 12.074219 7.957031 12.082031 7.949219 C 12.085938 7.949219 12.089844 7.949219 12.09375 7.949219 C 12.09375 7.945312 12.09375 7.945312 12.09375 7.941406 C 12.105469 7.925781 12.117188 7.914062 12.128906 7.902344 C 12.136719 7.902344 12.140625 7.90625 12.144531 7.90625 C 12.144531 7.910156 12.144531 7.914062 12.144531 7.914062 C 12.148438 7.917969 12.148438 7.917969 12.15625 7.917969 C 12.164062 7.925781 12.164062 7.925781 12.167969 7.941406 C 12.171875 7.941406 12.175781 7.941406 12.179688 7.941406 C 12.179688 7.941406 12.179688 7.945312 12.179688 7.949219 C 12.183594 7.953125 12.1875 7.953125 12.191406 7.953125 C 12.191406 7.957031 12.191406 7.960938 12.191406 7.964844 C 12.195312 7.964844 12.199219 7.964844 12.203125 7.964844 C 12.203125 7.96875 12.203125 7.96875 12.203125 7.972656 C 12.207031 7.972656 12.210938 7.972656 12.210938 7.972656 C 12.21875 7.980469 12.21875 7.980469 12.226562 7.988281 C 12.226562 7.992188 12.226562 7.996094 12.226562 7.996094 C 12.230469 7.996094 12.234375 7.996094 12.238281 7.996094 C 12.238281 8 12.238281 8.003906 12.238281 8.007812 C 12.242188 8.007812 12.246094 8.011719 12.25 8.011719 C 12.25 8.015625 12.25 8.019531 12.25 8.023438 C 12.253906 8.023438 12.257812 8.023438 12.261719 8.023438 C 12.261719 8.023438 12.261719 8.027344 12.261719 8.03125 C 12.261719 8.03125 12.265625 8.03125 12.269531 8.03125 C 12.277344 8.039062 12.277344 8.039062 12.285156 8.046875 C 12.292969 8.0625 12.292969 8.0625 12.308594 8.070312 C 12.308594 8.074219 12.308594 8.074219 12.308594 8.078125 C 12.3125 8.078125 12.316406 8.078125 12.316406 8.078125 C 12.316406 8.082031 12.316406 8.085938 12.316406 8.089844 C 12.320312 8.089844 12.324219 8.089844 12.328125 8.089844 C 12.335938 8.097656 12.335938 8.097656 12.34375 8.105469 C 12.355469 8.121094 12.363281 8.128906 12.375 8.136719 C 12.375 8.140625 12.375 8.144531 12.375 8.144531 C 12.378906 8.144531 12.382812 8.144531 12.386719 8.144531 C 12.390625 8.152344 12.390625 8.152344 12.398438 8.164062 C 12.410156 8.175781 12.410156 8.175781 12.421875 8.183594 C 12.421875 8.1875 12.421875 8.191406 12.421875 8.195312 C 12.425781 8.195312 12.429688 8.195312 12.433594 8.195312 C 12.4375 8.203125 12.445312 8.207031 12.449219 8.214844 C 12.457031 8.222656 12.464844 8.230469 12.472656 8.238281 C 12.488281 8.25 12.5 8.265625 12.515625 8.28125 C 12.519531 8.285156 12.527344 8.289062 12.53125 8.296875 C 12.546875 8.308594 12.558594 8.324219 12.574219 8.339844 C 12.578125 8.34375 12.582031 8.347656 12.589844 8.355469 C 12.597656 8.363281 12.605469 8.371094 12.617188 8.382812 C 12.636719 8.402344 12.65625 8.421875 12.675781 8.441406 C 12.683594 8.449219 12.691406 8.457031 12.699219 8.464844 C 12.710938 8.476562 12.722656 8.492188 12.734375 8.503906 C 12.738281 8.507812 12.742188 8.511719 12.746094 8.515625 C 12.761719 8.53125 12.78125 8.546875 12.796875 8.5625 C 12.824219 8.582031 12.847656 8.605469 12.871094 8.628906 C 12.875 8.632812 12.875 8.632812 12.875 8.636719 C 12.890625 8.648438 12.902344 8.660156 12.914062 8.675781 C 12.925781 8.683594 12.9375 8.695312 12.945312 8.707031 C 12.960938 8.71875 12.972656 8.730469 12.984375 8.742188 C 12.988281 8.746094 12.992188 8.753906 13 8.757812 C 13.003906 8.765625 13.011719 8.769531 13.019531 8.777344 C 13.023438 8.78125 13.027344 8.785156 13.03125 8.789062 C 13.039062 8.800781 13.039062 8.800781 13.039062 8.808594 C 13.03125 8.824219 13.023438 8.832031 13.011719 8.84375 C 13.007812 8.84375 13.007812 8.847656 13.003906 8.847656 C 12.996094 8.855469 12.988281 8.863281 12.980469 8.871094 C 12.976562 8.878906 12.96875 8.882812 12.964844 8.886719 C 12.949219 8.902344 12.933594 8.917969 12.917969 8.933594 C 12.902344 8.949219 12.886719 8.96875 12.871094 8.984375 C 12.839844 9.011719 12.8125 9.039062 12.785156 9.070312 C 12.742188 9.109375 12.699219 9.152344 12.660156 9.191406 C 12.59375 9.261719 12.527344 9.328125 12.457031 9.394531 C 12.394531 9.460938 12.328125 9.523438 12.261719 9.589844 C 12.257812 9.59375 12.253906 9.597656 12.25 9.601562 C 12.230469 9.621094 12.210938 9.640625 12.191406 9.660156 C 12.023438 9.828125 11.855469 9.996094 11.6875 10.164062 C 11.695312 10.179688 11.707031 10.191406 11.722656 10.203125 C 11.722656 10.207031 11.726562 10.210938 11.726562 10.210938 C 11.734375 10.21875 11.742188 10.226562 11.75 10.234375 C 11.757812 10.242188 11.761719 10.246094 11.765625 10.25 C 11.78125 10.265625 11.796875 10.28125 11.8125 10.296875 C 11.828125 10.3125 11.847656 10.328125 11.863281 10.347656 C 11.890625 10.375 11.917969 10.402344 11.949219 10.429688 C 11.992188 10.476562 12.039062 10.519531 12.082031 10.566406 C 12.097656 10.582031 12.113281 10.597656 12.128906 10.613281 C 12.136719 10.617188 12.136719 10.617188 12.140625 10.625 C 12.183594 10.667969 12.226562 10.710938 12.273438 10.753906 C 12.277344 10.757812 12.28125 10.761719 12.285156 10.765625 C 12.347656 10.832031 12.414062 10.894531 12.480469 10.960938 C 12.546875 11.027344 12.613281 11.09375 12.679688 11.160156 C 12.71875 11.199219 12.761719 11.242188 12.800781 11.28125 C 12.832031 11.3125 12.859375 11.339844 12.886719 11.367188 C 12.902344 11.382812 12.917969 11.398438 12.933594 11.414062 C 12.949219 11.429688 12.964844 11.445312 12.980469 11.460938 C 12.984375 11.464844 12.992188 11.472656 12.996094 11.476562 C 13.003906 11.484375 13.011719 11.492188 13.019531 11.496094 C 13.023438 11.503906 13.027344 11.507812 13.03125 11.511719 C 13.039062 11.519531 13.039062 11.519531 13.039062 11.53125 C 13.03125 11.542969 13.027344 11.546875 13.019531 11.558594 C 13.015625 11.558594 13.011719 11.5625 13.007812 11.566406 C 13.003906 11.570312 13.003906 11.574219 13 11.578125 C 12.996094 11.582031 12.992188 11.582031 12.988281 11.585938 C 12.976562 11.601562 12.964844 11.613281 12.949219 11.625 C 12.941406 11.632812 12.933594 11.640625 12.925781 11.652344 C 12.90625 11.667969 12.886719 11.6875 12.867188 11.707031 C 12.839844 11.734375 12.8125 11.761719 12.785156 11.789062 C 12.742188 11.835938 12.695312 11.878906 12.652344 11.921875 C 12.609375 11.964844 12.566406 12.007812 12.523438 12.054688 C 12.519531 12.054688 12.515625 12.058594 12.511719 12.0625 C 12.5 12.074219 12.488281 12.085938 12.472656 12.101562 C 12.363281 12.210938 12.25 12.324219 12.140625 12.433594 C 12.121094 12.425781 12.113281 12.414062 12.097656 12.402344 C 12.09375 12.398438 12.09375 12.398438 12.089844 12.394531 C 12.082031 12.386719 12.074219 12.378906 12.066406 12.371094 C 12.0625 12.367188 12.058594 12.359375 12.050781 12.355469 C 12.035156 12.339844 12.019531 12.324219 12.003906 12.308594 C 11.988281 12.292969 11.972656 12.277344 11.957031 12.257812 C 11.925781 12.230469 11.898438 12.203125 11.871094 12.171875 C 11.828125 12.132812 11.789062 12.089844 11.746094 12.050781 C 11.679688 11.984375 11.613281 11.914062 11.546875 11.847656 C 11.480469 11.785156 11.414062 11.71875 11.351562 11.652344 C 11.34375 11.648438 11.34375 11.648438 11.339844 11.640625 C 11.316406 11.621094 11.296875 11.601562 11.277344 11.582031 C 11.109375 11.414062 10.945312 11.246094 10.777344 11.078125 C 10.746094 11.105469 10.71875 11.132812 10.6875 11.160156 C 10.683594 11.167969 10.679688 11.171875 10.671875 11.179688 C 10.65625 11.195312 10.644531 11.207031 10.628906 11.222656 C 10.613281 11.238281 10.59375 11.257812 10.578125 11.273438 C 10.550781 11.300781 10.523438 11.328125 10.496094 11.355469 C 10.453125 11.398438 10.414062 11.4375 10.371094 11.480469 C 10.308594 11.542969 10.242188 11.609375 10.175781 11.675781 C 10.109375 11.742188 10.046875 11.804688 9.984375 11.867188 C 9.980469 11.871094 9.976562 11.875 9.972656 11.878906 C 9.949219 11.902344 9.929688 11.921875 9.910156 11.941406 C 9.746094 12.105469 9.582031 12.269531 9.417969 12.433594 C 9.402344 12.425781 9.394531 12.417969 9.382812 12.410156 C 9.378906 12.402344 9.378906 12.402344 9.375 12.398438 C 9.371094 12.394531 9.367188 12.390625 9.363281 12.390625 C 9.359375 12.382812 9.359375 12.382812 9.351562 12.378906 C 9.339844 12.367188 9.328125 12.355469 9.316406 12.339844 C 9.308594 12.332031 9.296875 12.324219 9.289062 12.316406 C 9.265625 12.292969 9.242188 12.269531 9.21875 12.242188 C 9.203125 12.230469 9.1875 12.214844 9.171875 12.199219 C 9.132812 12.160156 9.089844 12.117188 9.050781 12.078125 C 9.046875 12.074219 9.042969 12.070312 9.042969 12.070312 C 9.035156 12.0625 9.03125 12.058594 9.027344 12.050781 C 9.023438 12.050781 9.019531 12.046875 9.019531 12.042969 C 9.015625 12.042969 9.011719 12.039062 9.011719 12.035156 C 8.96875 11.992188 8.925781 11.949219 8.882812 11.90625 C 8.835938 11.863281 8.792969 11.820312 8.75 11.777344 C 8.722656 11.75 8.699219 11.726562 8.675781 11.703125 C 8.652344 11.679688 8.628906 11.65625 8.605469 11.632812 C 8.597656 11.625 8.585938 11.613281 8.578125 11.605469 C 8.566406 11.59375 8.554688 11.582031 8.542969 11.570312 C 8.539062 11.566406 8.539062 11.566406 8.535156 11.5625 C 8.53125 11.558594 8.527344 11.554688 8.523438 11.550781 C 8.523438 11.550781 8.519531 11.546875 8.515625 11.542969 C 8.511719 11.535156 8.511719 11.535156 8.511719 11.527344 C 8.519531 11.511719 8.527344 11.503906 8.539062 11.492188 C 8.542969 11.488281 8.542969 11.488281 8.542969 11.484375 C 8.550781 11.476562 8.558594 11.46875 8.566406 11.464844 C 8.574219 11.457031 8.578125 11.453125 8.585938 11.445312 C 8.597656 11.429688 8.613281 11.414062 8.628906 11.402344 C 8.648438 11.382812 8.664062 11.367188 8.679688 11.351562 C 8.707031 11.324219 8.738281 11.292969 8.765625 11.265625 C 8.808594 11.222656 8.847656 11.183594 8.890625 11.140625 C 8.957031 11.074219 9.023438 11.007812 9.089844 10.941406 C 9.15625 10.875 9.222656 10.808594 9.285156 10.746094 C 9.289062 10.742188 9.292969 10.738281 9.296875 10.734375 C 9.320312 10.714844 9.339844 10.691406 9.359375 10.671875 C 9.527344 10.507812 9.691406 10.339844 9.859375 10.171875 C 9.851562 10.15625 9.84375 10.144531 9.828125 10.128906 C 9.828125 10.128906 9.824219 10.125 9.820312 10.121094 C 9.8125 10.113281 9.804688 10.109375 9.796875 10.101562 C 9.792969 10.09375 9.789062 10.089844 9.78125 10.082031 C 9.765625 10.066406 9.75 10.054688 9.734375 10.039062 C 9.71875 10.019531 9.703125 10.003906 9.6875 9.988281 C 9.660156 9.960938 9.628906 9.933594 9.601562 9.902344 C 9.554688 9.859375 9.511719 9.8125 9.464844 9.769531 C 9.449219 9.753906 9.4375 9.738281 9.421875 9.722656 C 9.417969 9.71875 9.414062 9.714844 9.410156 9.710938 C 9.363281 9.667969 9.320312 9.625 9.277344 9.582031 C 9.273438 9.578125 9.269531 9.574219 9.265625 9.566406 C 9.199219 9.503906 9.136719 9.4375 9.070312 9.375 C 9.003906 9.308594 8.9375 9.242188 8.871094 9.175781 C 8.828125 9.132812 8.789062 9.09375 8.746094 9.050781 C 8.71875 9.023438 8.691406 8.996094 8.664062 8.96875 C 8.648438 8.953125 8.628906 8.933594 8.613281 8.917969 C 8.597656 8.90625 8.585938 8.890625 8.570312 8.875 C 8.5625 8.871094 8.558594 8.863281 8.554688 8.859375 C 8.546875 8.851562 8.539062 8.84375 8.53125 8.835938 C 8.527344 8.832031 8.523438 8.828125 8.519531 8.824219 C 8.511719 8.8125 8.511719 8.8125 8.511719 8.804688 C 8.515625 8.792969 8.523438 8.785156 8.53125 8.777344 C 8.535156 8.773438 8.535156 8.773438 8.539062 8.769531 C 8.542969 8.765625 8.546875 8.761719 8.550781 8.757812 C 8.554688 8.753906 8.554688 8.753906 8.5625 8.746094 C 8.574219 8.734375 8.585938 8.722656 8.597656 8.710938 C 8.605469 8.703125 8.617188 8.691406 8.625 8.683594 C 8.644531 8.664062 8.664062 8.644531 8.683594 8.628906 C 8.710938 8.601562 8.738281 8.574219 8.765625 8.542969 C 8.808594 8.5 8.851562 8.457031 8.898438 8.410156 C 8.941406 8.367188 8.984375 8.324219 9.027344 8.28125 C 9.03125 8.28125 9.03125 8.277344 9.035156 8.273438 C 9.050781 8.261719 9.0625 8.246094 9.074219 8.234375 C 9.1875 8.125 9.296875 8.011719 9.410156 7.902344 Z M 9.410156 7.902344 "/>
</g>
</svg>
