<?xml version="1.0" encoding="UTF-8"?>
<svg xmlns="http://www.w3.org/2000/svg" xmlns:xlink="http://www.w3.org/1999/xlink" width="128px" height="128px" viewBox="0 0 128 128" version="1.1">
<g id="surface1">
<path style=" stroke:none;fill-rule:nonzero;fill:rgb(0%,0%,0%);fill-opacity:1;" d="M 0 0 C 42.238281 0 84.480469 0 128 0 C 128 42.238281 128 84.480469 128 128 C 85.761719 128 43.519531 128 0 128 C 0 85.761719 0 43.519531 0 0 Z M 0 0 "/>
<path style=" stroke:none;fill-rule:nonzero;fill:rgb(90.196079%,90.980393%,91.37255%);fill-opacity:1;" d="M 37.628906 23.691406 C 37.730469 23.691406 37.835938 23.691406 37.9375 23.691406 C 38.605469 23.691406 39.265625 23.714844 39.925781 23.789062 C 39.972656 23.792969 40.019531 23.800781 40.070312 23.804688 C 40.164062 23.8125 40.253906 23.824219 40.347656 23.835938 C 40.496094 23.851562 40.640625 23.867188 40.785156 23.878906 C 41.308594 23.933594 41.824219 24.007812 42.339844 24.113281 C 42.484375 24.144531 42.625 24.167969 42.769531 24.195312 C 43.304688 24.292969 43.828125 24.414062 44.355469 24.542969 C 44.390625 24.554688 44.421875 24.5625 44.457031 24.570312 C 44.796875 24.65625 45.136719 24.742188 45.46875 24.847656 C 45.53125 24.867188 45.59375 24.882812 45.652344 24.902344 C 46.042969 25.015625 46.429688 25.140625 46.808594 25.277344 C 46.890625 25.308594 46.96875 25.335938 47.050781 25.363281 C 47.976562 25.695312 48.882812 26.078125 49.769531 26.5 C 49.851562 26.535156 49.933594 26.574219 50.011719 26.609375 C 52.078125 27.582031 54.042969 28.835938 55.777344 30.324219 C 55.839844 30.378906 55.90625 30.433594 55.96875 30.488281 C 56.46875 30.910156 56.9375 31.355469 57.398438 31.816406 C 57.445312 31.859375 57.488281 31.902344 57.53125 31.945312 C 57.777344 32.1875 58.007812 32.433594 58.222656 32.703125 C 58.300781 32.800781 58.382812 32.890625 58.464844 32.980469 C 59.050781 33.628906 59.566406 34.359375 60.023438 35.101562 C 60.039062 35.125 60.054688 35.148438 60.070312 35.171875 C 60.671875 36.136719 61.160156 37.148438 61.5625 38.210938 C 61.628906 38.113281 61.667969 38.027344 61.714844 37.917969 C 61.726562 37.882812 61.742188 37.84375 61.757812 37.808594 C 61.78125 37.75 61.78125 37.75 61.804688 37.6875 C 62.503906 35.996094 63.460938 34.46875 64.632812 33.066406 C 64.652344 33.046875 64.667969 33.023438 64.683594 33.003906 C 65.128906 32.476562 65.601562 31.980469 66.089844 31.492188 C 66.105469 31.472656 66.125 31.453125 66.144531 31.433594 C 66.363281 31.214844 66.585938 31 66.824219 30.800781 C 66.882812 30.742188 66.945312 30.6875 67.007812 30.632812 C 67.171875 30.484375 67.339844 30.34375 67.511719 30.203125 C 67.597656 30.132812 67.683594 30.0625 67.769531 29.992188 C 68.117188 29.703125 68.480469 29.433594 68.847656 29.171875 C 68.933594 29.113281 69.015625 29.054688 69.097656 28.992188 C 69.75 28.523438 70.429688 28.09375 71.125 27.6875 C 71.175781 27.660156 71.175781 27.660156 71.226562 27.628906 C 73.179688 26.496094 75.257812 25.574219 77.421875 24.925781 C 77.457031 24.914062 77.496094 24.902344 77.535156 24.890625 C 77.804688 24.808594 78.074219 24.730469 78.34375 24.65625 C 78.378906 24.644531 78.414062 24.636719 78.449219 24.625 C 79.382812 24.363281 80.339844 24.175781 81.296875 24.023438 C 81.390625 24.007812 81.484375 23.992188 81.574219 23.976562 C 81.996094 23.90625 82.414062 23.855469 82.839844 23.816406 C 82.941406 23.804688 83.042969 23.796875 83.140625 23.785156 C 83.882812 23.714844 84.617188 23.683594 85.363281 23.683594 C 85.410156 23.683594 85.457031 23.683594 85.507812 23.683594 C 86.386719 23.683594 87.253906 23.734375 88.128906 23.839844 C 88.207031 23.847656 88.285156 23.855469 88.363281 23.867188 C 89.746094 24.023438 91.175781 24.347656 92.476562 24.847656 C 92.515625 24.863281 92.558594 24.878906 92.601562 24.894531 C 93.277344 25.15625 93.941406 25.441406 94.589844 25.769531 C 94.621094 25.785156 94.648438 25.800781 94.683594 25.816406 C 96.183594 26.574219 97.515625 27.613281 98.703125 28.800781 C 98.761719 28.859375 98.824219 28.921875 98.886719 28.984375 C 99.136719 29.230469 99.363281 29.488281 99.582031 29.761719 C 99.640625 29.832031 99.699219 29.902344 99.761719 29.972656 C 100.191406 30.488281 100.570312 31.039062 100.925781 31.605469 C 100.941406 31.636719 100.960938 31.664062 100.980469 31.691406 C 101.328125 32.25 101.628906 32.824219 101.921875 33.410156 C 101.949219 33.464844 101.949219 33.464844 101.976562 33.515625 C 102.484375 34.515625 102.878906 35.601562 103.191406 36.675781 C 103.199219 36.699219 103.207031 36.722656 103.210938 36.75 C 103.273438 36.953125 103.328125 37.160156 103.382812 37.367188 C 103.390625 37.402344 103.402344 37.4375 103.410156 37.472656 C 103.5625 38.046875 103.683594 38.625 103.785156 39.210938 C 103.808594 39.332031 103.828125 39.453125 103.851562 39.570312 C 103.875 39.695312 103.898438 39.816406 103.921875 39.941406 C 103.933594 40.011719 103.933594 40.011719 103.945312 40.082031 C 104.035156 40.574219 104.089844 41.066406 104.140625 41.5625 C 104.152344 41.703125 104.167969 41.84375 104.183594 41.984375 C 104.3125 43.207031 104.359375 44.417969 104.355469 45.644531 C 104.355469 45.753906 104.355469 45.859375 104.355469 45.964844 C 104.355469 46.992188 104.335938 48.015625 104.234375 49.039062 C 104.226562 49.117188 104.222656 49.191406 104.214844 49.269531 C 104.1875 49.535156 104.160156 49.796875 104.128906 50.058594 C 104.113281 50.183594 104.101562 50.308594 104.085938 50.429688 C 104.027344 50.96875 103.960938 51.507812 103.878906 52.042969 C 103.875 52.082031 103.867188 52.121094 103.863281 52.160156 C 103.820312 52.4375 103.765625 52.714844 103.707031 52.992188 C 103.6875 53.078125 103.671875 53.167969 103.652344 53.257812 C 103.398438 54.535156 103.132812 55.808594 102.75 57.054688 C 102.738281 57.09375 102.726562 57.128906 102.714844 57.167969 C 102.679688 57.277344 102.648438 57.382812 102.613281 57.492188 C 102.589844 57.574219 102.5625 57.660156 102.535156 57.746094 C 102.523438 57.785156 102.511719 57.824219 102.5 57.863281 C 102.46875 57.960938 102.441406 58.058594 102.414062 58.15625 C 102.257812 58.683594 102.078125 59.203125 101.886719 59.71875 C 101.859375 59.789062 101.859375 59.789062 101.832031 59.863281 C 101.703125 60.207031 101.570312 60.550781 101.433594 60.894531 C 101.402344 60.976562 101.371094 61.058594 101.339844 61.140625 C 101.316406 61.191406 101.296875 61.246094 101.277344 61.300781 C 101.261719 61.335938 101.261719 61.335938 101.246094 61.378906 C 101.167969 61.574219 101.082031 61.769531 100.992188 61.964844 C 100.957031 62.082031 100.96875 62.136719 101.003906 62.253906 C 101.058594 62.332031 101.058594 62.332031 101.132812 62.402344 C 101.164062 62.433594 101.191406 62.460938 101.222656 62.492188 C 101.253906 62.523438 101.285156 62.554688 101.316406 62.585938 C 101.351562 62.621094 101.382812 62.652344 101.417969 62.6875 C 101.511719 62.78125 101.605469 62.875 101.699219 62.964844 C 101.796875 63.066406 101.898438 63.167969 102 63.265625 C 102.171875 63.441406 102.347656 63.613281 102.519531 63.789062 C 102.773438 64.039062 103.023438 64.289062 103.277344 64.539062 C 103.683594 64.949219 104.089844 65.355469 104.5 65.761719 C 104.898438 66.15625 105.292969 66.550781 105.6875 66.949219 C 105.714844 66.972656 105.738281 66.996094 105.761719 67.023438 C 105.886719 67.144531 106.007812 67.265625 106.132812 67.390625 C 107.148438 68.402344 108.164062 69.417969 109.183594 70.433594 C 108.976562 70.683594 108.75 70.910156 108.523438 71.136719 C 108.476562 71.179688 108.433594 71.222656 108.390625 71.269531 C 108.269531 71.386719 108.148438 71.507812 108.027344 71.628906 C 107.898438 71.757812 107.769531 71.886719 107.640625 72.019531 C 107.414062 72.242188 107.1875 72.46875 106.964844 72.691406 C 106.640625 73.019531 106.3125 73.34375 105.988281 73.667969 C 105.460938 74.195312 104.933594 74.722656 104.40625 75.25 C 103.894531 75.761719 103.378906 76.273438 102.867188 76.789062 C 102.820312 76.835938 102.820312 76.835938 102.773438 76.882812 C 102.613281 77.042969 102.457031 77.199219 102.296875 77.359375 C 100.980469 78.671875 99.667969 79.988281 98.351562 81.300781 C 98.410156 81.441406 98.5 81.53125 98.605469 81.640625 C 98.632812 81.667969 98.632812 81.667969 98.660156 81.695312 C 98.722656 81.757812 98.785156 81.820312 98.847656 81.882812 C 98.890625 81.925781 98.933594 81.96875 98.980469 82.015625 C 99.101562 82.136719 99.222656 82.257812 99.347656 82.382812 C 99.480469 82.511719 99.609375 82.644531 99.742188 82.777344 C 99.972656 83.003906 100.199219 83.234375 100.429688 83.460938 C 100.757812 83.792969 101.089844 84.121094 101.421875 84.453125 C 101.957031 84.988281 102.492188 85.523438 103.027344 86.058594 C 103.550781 86.582031 104.070312 87.101562 104.59375 87.621094 C 104.625 87.652344 104.65625 87.6875 104.6875 87.71875 C 104.851562 87.878906 105.011719 88.039062 105.171875 88.203125 C 106.507812 89.539062 107.84375 90.871094 109.183594 92.207031 C 108.964844 92.472656 108.71875 92.714844 108.476562 92.957031 C 108.425781 93.007812 108.375 93.054688 108.328125 93.105469 C 108.195312 93.238281 108.058594 93.375 107.925781 93.507812 C 107.78125 93.652344 107.636719 93.796875 107.488281 93.941406 C 107.238281 94.195312 106.988281 94.445312 106.738281 94.695312 C 106.375 95.058594 106.011719 95.421875 105.648438 95.785156 C 105.058594 96.371094 104.46875 96.960938 103.878906 97.550781 C 103.308594 98.121094 102.738281 98.695312 102.164062 99.265625 C 102.128906 99.300781 102.09375 99.335938 102.058594 99.371094 C 101.878906 99.550781 101.703125 99.726562 101.527344 99.902344 C 100.058594 101.371094 98.589844 102.835938 97.125 104.304688 C 96.964844 104.234375 96.859375 104.128906 96.738281 104.007812 C 96.714844 103.984375 96.691406 103.960938 96.667969 103.9375 C 96.59375 103.859375 96.515625 103.78125 96.4375 103.707031 C 96.382812 103.648438 96.328125 103.59375 96.273438 103.539062 C 96.15625 103.421875 96.035156 103.300781 95.917969 103.183594 C 95.730469 102.992188 95.542969 102.804688 95.355469 102.617188 C 95.054688 102.320312 94.757812 102.023438 94.460938 101.722656 C 93.929688 101.191406 93.398438 100.65625 92.867188 100.125 C 92.679688 99.9375 92.492188 99.75 92.304688 99.5625 C 92.191406 99.445312 92.074219 99.328125 91.957031 99.210938 C 91.902344 99.160156 91.847656 99.105469 91.796875 99.050781 C 91.445312 98.699219 91.445312 98.699219 91.078125 98.363281 C 91 98.296875 90.925781 98.226562 90.851562 98.152344 C 90.808594 98.113281 90.808594 98.113281 90.765625 98.070312 C 90.734375 98.039062 90.707031 98.011719 90.675781 97.980469 C 90.644531 97.949219 90.613281 97.917969 90.582031 97.886719 C 90.515625 97.820312 90.453125 97.753906 90.386719 97.691406 C 90.285156 97.589844 90.1875 97.492188 90.085938 97.390625 C 90.023438 97.328125 89.960938 97.265625 89.894531 97.203125 C 89.867188 97.171875 89.835938 97.140625 89.804688 97.113281 C 89.777344 97.082031 89.75 97.054688 89.722656 97.027344 C 89.699219 97.003906 89.671875 96.980469 89.648438 96.953125 C 89.597656 96.894531 89.597656 96.894531 89.597656 96.816406 C 89.574219 96.804688 89.550781 96.796875 89.527344 96.785156 C 89.4375 96.734375 89.375 96.683594 89.300781 96.609375 C 89.277344 96.582031 89.25 96.558594 89.222656 96.53125 C 89.199219 96.503906 89.171875 96.480469 89.144531 96.453125 C 89.117188 96.425781 89.089844 96.398438 89.0625 96.371094 C 89.039062 96.34375 89.011719 96.320312 88.988281 96.292969 C 88.964844 96.269531 88.941406 96.246094 88.917969 96.222656 C 88.867188 96.164062 88.867188 96.164062 88.867188 96.085938 C 88.84375 96.078125 88.824219 96.066406 88.800781 96.058594 C 88.699219 96.003906 88.628906 95.9375 88.550781 95.855469 C 88.507812 95.816406 88.507812 95.816406 88.46875 95.773438 C 88.40625 95.703125 88.40625 95.703125 88.40625 95.625 C 88.367188 95.609375 88.367188 95.609375 88.332031 95.59375 C 88.253906 95.546875 88.253906 95.546875 88.214844 95.433594 C 88.164062 95.40625 88.113281 95.382812 88.058594 95.355469 C 87.992188 95.300781 87.992188 95.300781 87.945312 95.242188 C 87.945312 95.214844 87.945312 95.191406 87.945312 95.164062 C 87.90625 95.148438 87.90625 95.148438 87.871094 95.132812 C 87.792969 95.089844 87.792969 95.089844 87.753906 94.972656 C 87.726562 94.972656 87.703125 94.972656 87.675781 94.972656 C 87.675781 94.949219 87.675781 94.921875 87.675781 94.894531 C 87.636719 94.882812 87.601562 94.871094 87.5625 94.859375 C 87.5625 94.832031 87.5625 94.808594 87.5625 94.78125 C 87.535156 94.78125 87.511719 94.78125 87.484375 94.78125 C 87.484375 94.753906 87.484375 94.730469 87.484375 94.703125 C 87.457031 94.703125 87.433594 94.703125 87.40625 94.703125 C 87.40625 94.679688 87.40625 94.652344 87.40625 94.628906 C 87.367188 94.613281 87.332031 94.601562 87.292969 94.589844 C 87.292969 94.5625 87.292969 94.539062 87.292969 94.511719 C 87.265625 94.511719 87.242188 94.511719 87.214844 94.511719 C 87.214844 94.488281 87.214844 94.460938 87.214844 94.433594 C 87.175781 94.421875 87.140625 94.410156 87.101562 94.398438 C 87.101562 94.371094 87.101562 94.347656 87.101562 94.320312 C 87.074219 94.320312 87.050781 94.320312 87.023438 94.320312 C 87.023438 94.292969 87.023438 94.269531 87.023438 94.242188 C 86.996094 94.242188 86.972656 94.242188 86.945312 94.242188 C 86.945312 94.21875 86.945312 94.191406 86.945312 94.167969 C 86.910156 94.152344 86.871094 94.140625 86.832031 94.128906 C 86.832031 94.101562 86.832031 94.078125 86.832031 94.050781 C 86.804688 94.050781 86.78125 94.050781 86.753906 94.050781 C 86.753906 94.027344 86.753906 94 86.753906 93.972656 C 86.714844 93.960938 86.679688 93.949219 86.640625 93.9375 C 86.640625 93.910156 86.640625 93.886719 86.640625 93.859375 C 86.613281 93.859375 86.589844 93.859375 86.5625 93.859375 C 86.5625 93.832031 86.5625 93.808594 86.5625 93.78125 C 86.535156 93.78125 86.511719 93.78125 86.484375 93.78125 C 86.484375 93.757812 86.484375 93.730469 86.484375 93.707031 C 86.449219 93.691406 86.410156 93.679688 86.371094 93.667969 C 86.371094 93.640625 86.371094 93.617188 86.371094 93.589844 C 86.34375 93.589844 86.320312 93.589844 86.292969 93.589844 C 86.28125 93.566406 86.269531 93.539062 86.253906 93.511719 C 86.097656 93.535156 86.023438 93.613281 85.914062 93.722656 C 85.894531 93.742188 85.878906 93.761719 85.859375 93.78125 C 85.796875 93.839844 85.734375 93.902344 85.675781 93.964844 C 85.628906 94.007812 85.585938 94.054688 85.542969 94.097656 C 85.417969 94.21875 85.296875 94.34375 85.175781 94.464844 C 85.042969 94.597656 84.910156 94.730469 84.777344 94.859375 C 84.550781 95.089844 84.320312 95.316406 84.09375 95.546875 C 83.765625 95.878906 83.433594 96.207031 83.101562 96.539062 C 82.566406 97.074219 82.03125 97.613281 81.496094 98.148438 C 80.976562 98.671875 80.453125 99.191406 79.933594 99.710938 C 79.902344 99.746094 79.871094 99.777344 79.835938 99.808594 C 79.675781 99.972656 79.515625 100.132812 79.355469 100.292969 C 78.019531 101.628906 76.683594 102.96875 75.347656 104.304688 C 75.226562 104.25 75.148438 104.191406 75.054688 104.097656 C 75.027344 104.070312 75 104.042969 74.972656 104.015625 C 74.941406 103.984375 74.914062 103.953125 74.882812 103.925781 C 74.851562 103.890625 74.820312 103.859375 74.789062 103.828125 C 74.699219 103.738281 74.613281 103.652344 74.523438 103.5625 C 74.429688 103.46875 74.335938 103.371094 74.242188 103.277344 C 74.078125 103.113281 73.914062 102.945312 73.75 102.78125 C 73.488281 102.519531 73.230469 102.261719 72.972656 102 C 72.882812 101.910156 72.792969 101.824219 72.707031 101.734375 C 72.671875 101.699219 72.671875 101.699219 72.636719 101.664062 C 72.386719 101.414062 72.132812 101.160156 71.882812 100.90625 C 71.859375 100.882812 71.835938 100.859375 71.8125 100.835938 C 71.4375 100.460938 71.0625 100.082031 70.691406 99.707031 C 70.308594 99.320312 69.921875 98.9375 69.539062 98.550781 C 69.300781 98.3125 69.066406 98.074219 68.828125 97.835938 C 68.667969 97.671875 68.507812 97.511719 68.34375 97.347656 C 68.25 97.253906 68.15625 97.160156 68.0625 97.066406 C 67.960938 96.960938 67.859375 96.859375 67.757812 96.761719 C 67.730469 96.730469 67.699219 96.699219 67.667969 96.667969 C 67.515625 96.507812 67.515625 96.507812 67.308594 96.46875 C 67.203125 96.511719 67.109375 96.554688 67.015625 96.613281 C 66.960938 96.644531 66.960938 96.644531 66.90625 96.679688 C 66.867188 96.703125 66.828125 96.726562 66.789062 96.75 C 66.464844 96.941406 66.140625 97.128906 65.808594 97.304688 C 65.75 97.335938 65.75 97.335938 65.691406 97.367188 C 65.617188 97.410156 65.542969 97.449219 65.46875 97.488281 C 65.320312 97.570312 65.171875 97.652344 65.027344 97.734375 C 64.597656 97.972656 64.160156 98.207031 63.722656 98.4375 C 63.613281 98.5 63.5 98.558594 63.386719 98.617188 C 63.082031 98.78125 62.769531 98.941406 62.453125 99.085938 C 62.316406 99.148438 62.183594 99.214844 62.050781 99.289062 C 62.023438 99.304688 61.996094 99.320312 61.96875 99.335938 C 61.917969 99.363281 61.867188 99.394531 61.820312 99.425781 C 61.714844 99.480469 61.640625 99.511719 61.523438 99.492188 C 61.414062 99.449219 61.316406 99.402344 61.214844 99.351562 C 61.160156 99.324219 61.109375 99.300781 61.054688 99.273438 C 60.859375 99.179688 60.667969 99.082031 60.476562 98.984375 C 60.441406 98.96875 60.40625 98.953125 60.371094 98.933594 C 59.925781 98.707031 59.480469 98.480469 59.042969 98.234375 C 58.808594 98.105469 58.574219 97.980469 58.335938 97.855469 C 57.859375 97.601562 57.382812 97.34375 56.914062 97.074219 C 56.8125 97.015625 56.707031 96.957031 56.605469 96.898438 C 56.023438 96.566406 55.449219 96.234375 54.878906 95.894531 C 54.832031 95.867188 54.832031 95.867188 54.785156 95.839844 C 54.003906 95.375 53.234375 94.898438 52.46875 94.414062 C 52.378906 94.355469 52.292969 94.300781 52.203125 94.246094 C 51.519531 93.816406 50.847656 93.375 50.179688 92.929688 C 50.074219 92.859375 49.972656 92.792969 49.871094 92.722656 C 49.296875 92.339844 48.722656 91.949219 48.152344 91.550781 C 48.121094 91.53125 48.089844 91.507812 48.058594 91.484375 C 47.964844 91.417969 47.867188 91.351562 47.773438 91.285156 C 47.746094 91.265625 47.71875 91.246094 47.6875 91.226562 C 46.804688 90.605469 45.933594 89.96875 45.078125 89.3125 C 44.933594 89.203125 44.789062 89.09375 44.644531 88.988281 C 44.429688 88.824219 44.21875 88.664062 44.003906 88.5 C 43.957031 88.460938 43.90625 88.421875 43.855469 88.382812 C 43.515625 88.121094 43.179688 87.859375 42.851562 87.585938 C 42.683594 87.453125 42.519531 87.320312 42.351562 87.191406 C 42.132812 87.019531 41.921875 86.84375 41.710938 86.664062 C 41.601562 86.570312 41.492188 86.480469 41.378906 86.390625 C 41.160156 86.210938 40.949219 86.03125 40.734375 85.847656 C 40.671875 85.796875 40.609375 85.742188 40.546875 85.691406 C 40.109375 85.320312 39.671875 84.949219 39.25 84.566406 C 38.984375 84.324219 38.984375 84.324219 38.714844 84.089844 C 38.566406 83.957031 38.417969 83.824219 38.273438 83.6875 C 38.152344 83.578125 38.035156 83.472656 37.914062 83.363281 C 37.671875 83.148438 37.433594 82.925781 37.199219 82.699219 C 37.125 82.632812 37.050781 82.5625 36.976562 82.496094 C 36.609375 82.15625 36.257812 81.808594 35.902344 81.457031 C 35.847656 81.398438 35.789062 81.34375 35.734375 81.285156 C 35.613281 81.167969 35.496094 81.046875 35.378906 80.929688 C 35.226562 80.777344 35.074219 80.628906 34.925781 80.476562 C 34.808594 80.359375 34.691406 80.242188 34.570312 80.125 C 34.515625 80.070312 34.460938 80.011719 34.40625 79.957031 C 34.328125 79.878906 34.25 79.800781 34.171875 79.722656 C 34.148438 79.699219 34.125 79.679688 34.101562 79.65625 C 33.964844 79.515625 33.832031 79.371094 33.703125 79.222656 C 33.640625 79.148438 33.574219 79.082031 33.507812 79.015625 C 33.417969 78.929688 33.335938 78.839844 33.253906 78.746094 C 33.121094 78.589844 32.976562 78.4375 32.835938 78.285156 C 32.675781 78.113281 32.515625 77.941406 32.359375 77.761719 C 32.285156 77.675781 32.207031 77.589844 32.128906 77.507812 C 32.007812 77.375 31.894531 77.238281 31.78125 77.097656 C 31.664062 76.953125 31.542969 76.8125 31.414062 76.671875 C 31.257812 76.503906 31.109375 76.328125 30.964844 76.148438 C 30.871094 76.03125 30.769531 75.914062 30.671875 75.796875 C 30.507812 75.605469 30.351562 75.410156 30.195312 75.210938 C 30.082031 75.066406 29.96875 74.925781 29.855469 74.785156 C 29.59375 74.46875 29.34375 74.140625 29.097656 73.808594 C 28.96875 73.636719 28.835938 73.460938 28.703125 73.289062 C 28.445312 72.957031 28.199219 72.617188 27.957031 72.277344 C 27.929688 72.234375 27.929688 72.234375 27.898438 72.191406 C 26.96875 70.886719 26.085938 69.546875 25.269531 68.167969 C 25.25 68.136719 25.230469 68.101562 25.210938 68.070312 C 24.632812 67.09375 24.09375 66.097656 23.578125 65.085938 C 23.542969 65.019531 23.507812 64.949219 23.46875 64.878906 C 22.960938 63.882812 22.507812 62.863281 22.074219 61.832031 C 22.066406 61.808594 22.054688 61.785156 22.042969 61.761719 C 21.925781 61.476562 21.8125 61.191406 21.703125 60.902344 C 21.664062 60.804688 21.625 60.707031 21.585938 60.609375 C 21.503906 60.410156 21.433594 60.203125 21.359375 59.996094 C 21.347656 59.957031 21.347656 59.957031 21.332031 59.914062 C 21.320312 59.878906 21.320312 59.878906 21.308594 59.84375 C 21.28125 59.765625 21.25 59.6875 21.222656 59.609375 C 21.164062 59.460938 21.109375 59.308594 21.058594 59.15625 C 21.046875 59.128906 21.039062 59.101562 21.03125 59.074219 C 21 58.988281 20.96875 58.898438 20.941406 58.8125 C 20.929688 58.785156 20.917969 58.753906 20.910156 58.722656 C 20.738281 58.226562 20.578125 57.726562 20.429688 57.222656 C 20.414062 57.171875 20.402344 57.121094 20.386719 57.070312 C 20.308594 56.8125 20.242188 56.546875 20.183594 56.28125 C 20.144531 56.113281 20.097656 55.945312 20.050781 55.777344 C 19.972656 55.503906 19.90625 55.226562 19.84375 54.949219 C 19.835938 54.925781 19.832031 54.902344 19.824219 54.875 C 19.6875 54.253906 19.566406 53.628906 19.449219 53.003906 C 19.433594 52.921875 19.417969 52.84375 19.402344 52.761719 C 19.203125 51.722656 19.089844 50.667969 18.984375 49.617188 C 18.972656 49.511719 18.960938 49.410156 18.949219 49.308594 C 18.832031 48.195312 18.804688 47.082031 18.804688 45.960938 C 18.804688 45.867188 18.804688 45.769531 18.804688 45.675781 C 18.808594 44.59375 18.835938 43.515625 18.933594 42.4375 C 18.9375 42.386719 18.9375 42.386719 18.941406 42.335938 C 18.980469 41.894531 19.03125 41.457031 19.085938 41.015625 C 19.089844 40.988281 19.09375 40.957031 19.097656 40.929688 C 19.195312 40.183594 19.308594 39.445312 19.472656 38.710938 C 19.480469 38.664062 19.492188 38.613281 19.503906 38.5625 C 19.539062 38.40625 19.574219 38.25 19.609375 38.09375 C 19.617188 38.042969 19.628906 37.996094 19.640625 37.945312 C 19.742188 37.492188 19.855469 37.039062 20.007812 36.597656 C 20.09375 36.347656 20.171875 36.09375 20.242188 35.839844 C 20.285156 35.691406 20.335938 35.550781 20.390625 35.410156 C 20.40625 35.371094 20.421875 35.335938 20.433594 35.296875 C 20.679688 34.65625 20.941406 34.03125 21.238281 33.410156 C 21.253906 33.375 21.269531 33.339844 21.289062 33.304688 C 21.8125 32.207031 22.460938 31.171875 23.214844 30.21875 C 23.269531 30.148438 23.324219 30.082031 23.375 30.011719 C 23.773438 29.484375 24.242188 29.019531 24.707031 28.554688 C 24.742188 28.515625 24.78125 28.476562 24.820312 28.441406 C 25.070312 28.183594 25.335938 27.953125 25.617188 27.726562 C 25.65625 27.695312 25.695312 27.660156 25.734375 27.628906 C 26.0625 27.34375 26.414062 27.09375 26.765625 26.84375 C 26.792969 26.828125 26.816406 26.808594 26.839844 26.792969 C 27.949219 26.019531 29.191406 25.339844 30.484375 24.929688 C 30.585938 24.894531 30.6875 24.855469 30.789062 24.8125 C 30.984375 24.734375 31.179688 24.664062 31.378906 24.601562 C 31.417969 24.589844 31.453125 24.578125 31.488281 24.566406 C 31.875 24.449219 32.261719 24.351562 32.652344 24.257812 C 32.75 24.234375 32.851562 24.210938 32.949219 24.1875 C 33.21875 24.121094 33.480469 24.066406 33.757812 24.039062 C 33.78125 24.027344 33.808594 24.015625 33.832031 24.003906 C 33.90625 23.988281 33.980469 23.980469 34.054688 23.96875 C 34.101562 23.960938 34.144531 23.957031 34.195312 23.949219 C 34.242188 23.945312 34.292969 23.9375 34.34375 23.929688 C 34.371094 23.925781 34.394531 23.921875 34.421875 23.921875 C 34.800781 23.871094 35.183594 23.824219 35.5625 23.785156 C 35.605469 23.78125 35.648438 23.773438 35.691406 23.769531 C 36.335938 23.703125 36.980469 23.6875 37.628906 23.691406 Z M 37.628906 23.691406 "/>
<path style=" stroke:none;fill-rule:nonzero;fill:rgb(0%,0%,0%);fill-opacity:1;" d="M 75.273438 63.210938 C 75.414062 63.273438 75.503906 63.359375 75.613281 63.46875 C 75.628906 63.484375 75.648438 63.503906 75.667969 63.523438 C 75.730469 63.582031 75.789062 63.644531 75.851562 63.707031 C 75.894531 63.75 75.941406 63.796875 75.984375 63.839844 C 76.109375 63.960938 76.230469 64.085938 76.351562 64.207031 C 76.484375 64.339844 76.617188 64.472656 76.746094 64.601562 C 76.976562 64.832031 77.203125 65.058594 77.433594 65.289062 C 77.761719 65.621094 78.09375 65.949219 78.421875 66.28125 C 78.960938 66.816406 79.496094 67.351562 80.03125 67.890625 C 80.550781 68.410156 81.070312 68.933594 81.59375 69.453125 C 81.625 69.484375 81.65625 69.515625 81.691406 69.550781 C 81.851562 69.710938 82.011719 69.871094 82.171875 70.03125 C 83.507812 71.371094 84.84375 72.707031 86.179688 74.042969 C 86.417969 73.84375 86.636719 73.628906 86.855469 73.40625 C 86.898438 73.367188 86.9375 73.324219 86.980469 73.28125 C 87.09375 73.171875 87.207031 73.058594 87.316406 72.945312 C 87.441406 72.824219 87.5625 72.699219 87.683594 72.578125 C 87.894531 72.367188 88.105469 72.15625 88.316406 71.945312 C 88.621094 71.640625 88.925781 71.335938 89.230469 71.03125 C 89.722656 70.535156 90.21875 70.039062 90.710938 69.546875 C 90.742188 69.515625 90.773438 69.484375 90.800781 69.457031 C 91.222656 69.035156 91.644531 68.613281 92.0625 68.191406 C 92.09375 68.164062 92.121094 68.132812 92.152344 68.101562 C 92.183594 68.074219 92.210938 68.042969 92.242188 68.011719 C 92.734375 67.519531 93.226562 67.027344 93.722656 66.53125 C 94.027344 66.226562 94.328125 65.921875 94.632812 65.617188 C 94.839844 65.410156 95.050781 65.203125 95.257812 64.992188 C 95.378906 64.871094 95.5 64.753906 95.617188 64.632812 C 95.726562 64.523438 95.839844 64.410156 95.949219 64.300781 C 95.988281 64.261719 96.027344 64.222656 96.066406 64.183594 C 96.121094 64.128906 96.175781 64.074219 96.230469 64.019531 C 96.257812 63.988281 96.289062 63.960938 96.320312 63.929688 C 96.394531 63.867188 96.394531 63.867188 96.46875 63.867188 C 96.480469 63.84375 96.492188 63.820312 96.5 63.796875 C 96.546875 63.710938 96.589844 63.65625 96.664062 63.597656 C 96.6875 63.597656 96.714844 63.597656 96.738281 63.597656 C 96.746094 63.574219 96.753906 63.554688 96.761719 63.535156 C 96.839844 63.40625 96.9375 63.316406 97.046875 63.210938 C 97.085938 63.226562 97.121094 63.238281 97.160156 63.25 C 97.160156 63.277344 97.160156 63.300781 97.160156 63.328125 C 97.199219 63.34375 97.199219 63.34375 97.234375 63.359375 C 97.316406 63.40625 97.316406 63.40625 97.355469 63.519531 C 97.378906 63.519531 97.40625 63.519531 97.429688 63.519531 C 97.429688 63.546875 97.429688 63.570312 97.429688 63.597656 C 97.46875 63.609375 97.507812 63.621094 97.546875 63.636719 C 97.546875 63.660156 97.546875 63.6875 97.546875 63.710938 C 97.570312 63.710938 97.597656 63.710938 97.621094 63.710938 C 97.621094 63.738281 97.621094 63.761719 97.621094 63.789062 C 97.648438 63.789062 97.671875 63.789062 97.699219 63.789062 C 97.761719 63.839844 97.761719 63.839844 97.816406 63.902344 C 97.816406 63.929688 97.816406 63.953125 97.816406 63.980469 C 97.839844 63.980469 97.867188 63.980469 97.890625 63.980469 C 97.890625 64.007812 97.890625 64.03125 97.890625 64.058594 C 97.929688 64.070312 97.96875 64.082031 98.007812 64.097656 C 98.007812 64.121094 98.007812 64.148438 98.007812 64.171875 C 98.03125 64.171875 98.058594 64.171875 98.082031 64.171875 C 98.082031 64.199219 98.082031 64.222656 98.082031 64.25 C 98.109375 64.25 98.132812 64.25 98.160156 64.25 C 98.214844 64.308594 98.214844 64.308594 98.277344 64.382812 C 98.359375 64.484375 98.359375 64.484375 98.46875 64.558594 C 98.46875 64.582031 98.46875 64.609375 98.46875 64.632812 C 98.492188 64.632812 98.519531 64.632812 98.542969 64.632812 C 98.542969 64.660156 98.542969 64.683594 98.542969 64.710938 C 98.570312 64.710938 98.59375 64.710938 98.621094 64.710938 C 98.683594 64.773438 98.683594 64.773438 98.753906 64.859375 C 98.835938 64.957031 98.894531 65.023438 99.003906 65.09375 C 99.003906 65.121094 99.003906 65.144531 99.003906 65.171875 C 99.03125 65.171875 99.054688 65.171875 99.082031 65.171875 C 99.136719 65.230469 99.136719 65.230469 99.195312 65.304688 C 99.28125 65.40625 99.28125 65.40625 99.390625 65.480469 C 99.390625 65.503906 99.390625 65.527344 99.390625 65.554688 C 99.414062 65.554688 99.441406 65.554688 99.464844 65.554688 C 99.511719 65.609375 99.554688 65.664062 99.601562 65.71875 C 99.660156 65.789062 99.722656 65.84375 99.792969 65.902344 C 99.917969 66.003906 100.015625 66.121094 100.117188 66.246094 C 100.164062 66.285156 100.207031 66.324219 100.253906 66.363281 C 100.378906 66.46875 100.476562 66.578125 100.578125 66.707031 C 100.625 66.753906 100.667969 66.796875 100.710938 66.839844 C 100.78125 66.910156 100.851562 66.980469 100.921875 67.050781 C 101.078125 67.207031 101.234375 67.367188 101.394531 67.523438 C 101.460938 67.589844 101.527344 67.65625 101.59375 67.726562 C 101.691406 67.824219 101.789062 67.921875 101.886719 68.019531 C 101.917969 68.050781 101.949219 68.078125 101.980469 68.109375 C 102.109375 68.242188 102.238281 68.367188 102.378906 68.488281 C 102.582031 68.660156 102.769531 68.847656 102.957031 69.035156 C 102.984375 69.0625 102.984375 69.0625 103.015625 69.09375 C 103.117188 69.191406 103.21875 69.292969 103.316406 69.394531 C 103.402344 69.476562 103.484375 69.558594 103.570312 69.644531 C 103.671875 69.742188 103.773438 69.84375 103.875 69.945312 C 103.914062 69.984375 103.953125 70.019531 103.992188 70.058594 C 104.046875 70.113281 104.097656 70.164062 104.152344 70.21875 C 104.183594 70.25 104.214844 70.28125 104.246094 70.308594 C 104.304688 70.394531 104.304688 70.394531 104.300781 70.464844 C 104.253906 70.582031 104.183594 70.644531 104.09375 70.734375 C 104.074219 70.753906 104.058594 70.769531 104.039062 70.789062 C 103.976562 70.851562 103.914062 70.914062 103.855469 70.972656 C 103.808594 71.019531 103.765625 71.0625 103.71875 71.109375 C 103.597656 71.230469 103.476562 71.351562 103.351562 71.476562 C 103.222656 71.605469 103.089844 71.738281 102.957031 71.871094 C 102.730469 72.097656 102.5 72.328125 102.269531 72.554688 C 101.941406 72.886719 101.609375 73.214844 101.277344 73.546875 C 100.742188 74.082031 100.207031 74.617188 99.667969 75.152344 C 99.148438 75.675781 98.625 76.195312 98.105469 76.714844 C 98.074219 76.746094 98.042969 76.78125 98.007812 76.8125 C 97.847656 76.972656 97.6875 77.132812 97.523438 77.296875 C 96.1875 78.628906 94.851562 79.964844 93.511719 81.300781 C 93.574219 81.441406 93.660156 81.53125 93.765625 81.640625 C 93.785156 81.660156 93.804688 81.675781 93.820312 81.695312 C 93.882812 81.757812 93.945312 81.816406 94.007812 81.878906 C 94.050781 81.921875 94.09375 81.96875 94.140625 82.011719 C 94.261719 82.132812 94.382812 82.253906 94.503906 82.375 C 94.636719 82.507812 94.769531 82.636719 94.898438 82.769531 C 95.128906 82.996094 95.355469 83.222656 95.582031 83.449219 C 95.945312 83.808594 96.304688 84.167969 96.664062 84.527344 C 96.785156 84.648438 96.910156 84.773438 97.03125 84.894531 C 97.078125 84.941406 97.078125 84.941406 97.125 84.988281 C 97.476562 85.335938 97.824219 85.6875 98.175781 86.035156 C 98.207031 86.066406 98.238281 86.097656 98.273438 86.132812 C 98.792969 86.648438 99.3125 87.167969 99.832031 87.683594 C 100.363281 88.214844 100.898438 88.746094 101.429688 89.277344 C 101.757812 89.605469 102.085938 89.933594 102.414062 90.261719 C 102.640625 90.484375 102.867188 90.710938 103.089844 90.933594 C 103.222656 91.066406 103.351562 91.195312 103.480469 91.324219 C 103.601562 91.441406 103.71875 91.5625 103.839844 91.679688 C 103.882812 91.722656 103.925781 91.765625 103.96875 91.808594 C 104.027344 91.867188 104.085938 91.925781 104.140625 91.984375 C 104.175781 92.015625 104.207031 92.046875 104.242188 92.082031 C 104.304688 92.167969 104.304688 92.167969 104.304688 92.25 C 104.261719 92.332031 104.214844 92.386719 104.148438 92.453125 C 104.125 92.476562 104.101562 92.503906 104.074219 92.53125 C 104.046875 92.558594 104.019531 92.585938 103.992188 92.613281 C 103.960938 92.640625 103.933594 92.671875 103.902344 92.703125 C 103.804688 92.800781 103.707031 92.898438 103.605469 92.996094 C 103.535156 93.066406 103.464844 93.136719 103.394531 93.207031 C 103.242188 93.359375 103.089844 93.511719 102.941406 93.660156 C 102.71875 93.882812 102.5 94.101562 102.28125 94.320312 C 101.925781 94.675781 101.566406 95.03125 101.210938 95.386719 C 100.867188 95.730469 100.519531 96.078125 100.171875 96.421875 C 100.152344 96.445312 100.128906 96.464844 100.109375 96.488281 C 100 96.59375 99.894531 96.699219 99.789062 96.808594 C 98.898438 97.695312 98.011719 98.582031 97.125 99.464844 C 96.980469 99.40625 96.890625 99.320312 96.78125 99.210938 C 96.765625 99.195312 96.746094 99.175781 96.726562 99.15625 C 96.664062 99.09375 96.605469 99.035156 96.542969 98.972656 C 96.5 98.925781 96.453125 98.882812 96.410156 98.839844 C 96.285156 98.714844 96.164062 98.59375 96.042969 98.472656 C 95.910156 98.339844 95.777344 98.207031 95.648438 98.074219 C 95.417969 97.847656 95.191406 97.617188 94.960938 97.390625 C 94.632812 97.058594 94.300781 96.726562 93.972656 96.398438 C 93.433594 95.863281 92.898438 95.324219 92.363281 94.789062 C 91.84375 94.269531 91.324219 93.746094 90.800781 93.226562 C 90.753906 93.179688 90.753906 93.179688 90.707031 93.128906 C 90.542969 92.96875 90.382812 92.808594 90.222656 92.644531 C 88.886719 91.308594 87.550781 89.972656 86.214844 88.636719 C 85.96875 88.839844 85.742188 89.066406 85.511719 89.296875 C 85.46875 89.339844 85.425781 89.382812 85.382812 89.429688 C 85.261719 89.546875 85.140625 89.667969 85.019531 89.789062 C 84.890625 89.917969 84.761719 90.050781 84.632812 90.179688 C 84.40625 90.402344 84.179688 90.628906 83.957031 90.855469 C 83.632812 91.179688 83.304688 91.503906 82.980469 91.828125 C 82.453125 92.355469 81.925781 92.882812 81.398438 93.414062 C 80.886719 93.925781 80.375 94.4375 79.863281 94.949219 C 79.832031 94.980469 79.800781 95.011719 79.765625 95.046875 C 79.609375 95.203125 79.449219 95.363281 79.289062 95.519531 C 77.976562 96.835938 76.664062 98.152344 75.347656 99.464844 C 75.234375 99.414062 75.152344 99.359375 75.066406 99.269531 C 75.027344 99.230469 75.027344 99.230469 74.988281 99.195312 C 74.960938 99.167969 74.933594 99.140625 74.90625 99.109375 C 74.863281 99.066406 74.863281 99.066406 74.816406 99.023438 C 74.71875 98.925781 74.621094 98.828125 74.523438 98.730469 C 74.453125 98.660156 74.382812 98.589844 74.3125 98.519531 C 74.125 98.332031 73.933594 98.140625 73.742188 97.953125 C 73.625 97.832031 73.503906 97.714844 73.386719 97.597656 C 73.058594 97.269531 72.730469 96.941406 72.402344 96.613281 C 72.378906 96.589844 72.359375 96.570312 72.335938 96.546875 C 72.292969 96.503906 72.253906 96.464844 72.210938 96.421875 C 72.1875 96.398438 72.167969 96.378906 72.144531 96.355469 C 72.125 96.335938 72.101562 96.3125 72.082031 96.292969 C 71.738281 95.949219 71.394531 95.605469 71.050781 95.261719 C 70.695312 94.910156 70.34375 94.558594 69.992188 94.207031 C 69.792969 94.007812 69.59375 93.8125 69.398438 93.613281 C 69.210938 93.429688 69.023438 93.242188 68.839844 93.054688 C 68.769531 92.988281 68.703125 92.917969 68.632812 92.851562 C 68.539062 92.757812 68.445312 92.664062 68.355469 92.570312 C 68.3125 92.53125 68.3125 92.53125 68.269531 92.488281 C 68.246094 92.464844 68.222656 92.441406 68.195312 92.414062 C 68.175781 92.394531 68.152344 92.371094 68.128906 92.347656 C 68.089844 92.285156 68.089844 92.285156 68.09375 92.210938 C 68.144531 92.097656 68.214844 92.03125 68.300781 91.945312 C 68.328125 91.917969 68.328125 91.917969 68.355469 91.886719 C 68.417969 91.828125 68.480469 91.765625 68.542969 91.703125 C 68.585938 91.660156 68.628906 91.613281 68.675781 91.570312 C 68.796875 91.449219 68.917969 91.324219 69.042969 91.203125 C 69.175781 91.070312 69.304688 90.941406 69.4375 90.808594 C 69.667969 90.578125 69.894531 90.351562 70.125 90.125 C 70.453125 89.792969 70.785156 89.460938 71.117188 89.132812 C 71.652344 88.597656 72.1875 88.0625 72.726562 87.523438 C 73.246094 87.003906 73.769531 86.484375 74.289062 85.964844 C 74.320312 85.929688 74.355469 85.898438 74.386719 85.867188 C 74.546875 85.707031 74.707031 85.542969 74.871094 85.382812 C 76.207031 84.046875 77.542969 82.710938 78.882812 81.378906 C 78.820312 81.234375 78.734375 81.144531 78.628906 81.039062 C 78.609375 81.019531 78.589844 81 78.574219 80.984375 C 78.511719 80.921875 78.449219 80.859375 78.386719 80.800781 C 78.34375 80.753906 78.300781 80.710938 78.253906 80.667969 C 78.132812 80.546875 78.011719 80.425781 77.890625 80.300781 C 77.757812 80.171875 77.625 80.039062 77.496094 79.910156 C 77.265625 79.683594 77.039062 79.457031 76.8125 79.226562 C 76.449219 78.871094 76.089844 78.511719 75.730469 78.152344 C 75.609375 78.027344 75.484375 77.90625 75.363281 77.785156 C 75.332031 77.753906 75.300781 77.722656 75.269531 77.691406 C 74.917969 77.339844 74.570312 76.992188 74.21875 76.644531 C 74.1875 76.609375 74.15625 76.578125 74.121094 76.546875 C 73.601562 76.027344 73.082031 75.511719 72.5625 74.992188 C 72.03125 74.464844 71.5 73.933594 70.964844 73.398438 C 70.636719 73.070312 70.308594 72.746094 69.980469 72.417969 C 69.753906 72.191406 69.527344 71.96875 69.304688 71.742188 C 69.175781 71.613281 69.042969 71.484375 68.914062 71.355469 C 68.792969 71.238281 68.675781 71.117188 68.558594 71 C 68.515625 70.957031 68.46875 70.914062 68.425781 70.871094 C 68.367188 70.8125 68.308594 70.753906 68.253906 70.695312 C 68.21875 70.664062 68.1875 70.628906 68.152344 70.597656 C 68.089844 70.507812 68.089844 70.507812 68.089844 70.429688 C 68.132812 70.34375 68.179688 70.292969 68.246094 70.226562 C 68.269531 70.199219 68.292969 70.175781 68.320312 70.148438 C 68.347656 70.121094 68.375 70.09375 68.402344 70.066406 C 68.449219 70.023438 68.449219 70.023438 68.492188 69.976562 C 68.589844 69.878906 68.691406 69.78125 68.789062 69.683594 C 68.859375 69.613281 68.929688 69.542969 69 69.472656 C 69.152344 69.320312 69.304688 69.167969 69.457031 69.015625 C 69.675781 68.796875 69.894531 68.578125 70.113281 68.359375 C 70.46875 68.003906 70.828125 67.648438 71.183594 67.292969 C 71.53125 66.945312 71.875 66.601562 72.222656 66.257812 C 72.242188 66.234375 72.265625 66.214844 72.285156 66.191406 C 72.394531 66.085938 72.5 65.976562 72.605469 65.871094 C 73.496094 64.984375 74.382812 64.097656 75.273438 63.210938 Z M 75.273438 63.210938 "/>
</g>
</svg>
