<?xml version="1.0" encoding="UTF-8"?>
<svg xmlns="http://www.w3.org/2000/svg" xmlns:xlink="http://www.w3.org/1999/xlink" width="48px" height="48px" viewBox="0 0 48 48" version="1.1">
<g id="surface1">
<path style=" stroke:none;fill-rule:nonzero;fill:rgb(0%,0%,0%);fill-opacity:1;" d="M 0 0 C 15.839844 0 31.679688 0 48 0 C 48 15.839844 48 31.679688 48 48 C 32.160156 48 16.320312 48 0 48 C 0 32.160156 0 16.320312 0 0 Z M 0 0 "/>
<path style=" stroke:none;fill-rule:nonzero;fill:rgb(90.196079%,90.980393%,91.37255%);fill-opacity:1;" d="M 14.109375 8.882812 C 14.148438 8.882812 14.1875 8.882812 14.226562 8.882812 C 14.476562 8.882812 14.722656 8.894531 14.972656 8.921875 C 14.988281 8.921875 15.007812 8.925781 15.027344 8.925781 C 15.0625 8.929688 15.097656 8.933594 15.132812 8.9375 C 15.183594 8.945312 15.238281 8.949219 15.292969 8.957031 C 15.492188 8.976562 15.683594 9.003906 15.878906 9.042969 C 15.929688 9.054688 15.984375 9.0625 16.039062 9.074219 C 16.238281 9.109375 16.4375 9.15625 16.632812 9.203125 C 16.644531 9.207031 16.660156 9.210938 16.671875 9.214844 C 16.800781 9.246094 16.925781 9.277344 17.050781 9.316406 C 17.074219 9.324219 17.097656 9.332031 17.121094 9.335938 C 17.265625 9.378906 17.410156 9.425781 17.554688 9.480469 C 17.582031 9.492188 17.613281 9.5 17.644531 9.511719 C 17.992188 9.636719 18.332031 9.78125 18.664062 9.9375 C 18.695312 9.949219 18.722656 9.964844 18.753906 9.980469 C 19.527344 10.34375 20.265625 10.8125 20.914062 11.371094 C 20.941406 11.390625 20.964844 11.414062 20.988281 11.433594 C 21.175781 11.589844 21.351562 11.757812 21.523438 11.929688 C 21.542969 11.949219 21.558594 11.964844 21.574219 11.980469 C 21.667969 12.070312 21.753906 12.164062 21.832031 12.265625 C 21.863281 12.300781 21.894531 12.335938 21.925781 12.367188 C 22.144531 12.609375 22.335938 12.886719 22.507812 13.164062 C 22.515625 13.171875 22.519531 13.179688 22.527344 13.1875 C 22.75 13.550781 22.9375 13.929688 23.085938 14.328125 C 23.109375 14.292969 23.125 14.261719 23.140625 14.21875 C 23.148438 14.207031 23.152344 14.191406 23.160156 14.179688 C 23.167969 14.15625 23.167969 14.15625 23.175781 14.132812 C 23.4375 13.5 23.796875 12.925781 24.238281 12.398438 C 24.242188 12.390625 24.25 12.382812 24.257812 12.375 C 24.421875 12.179688 24.601562 11.992188 24.78125 11.808594 C 24.789062 11.800781 24.796875 11.796875 24.804688 11.789062 C 24.886719 11.707031 24.96875 11.625 25.058594 11.550781 C 25.082031 11.527344 25.105469 11.507812 25.128906 11.488281 C 25.1875 11.429688 25.253906 11.378906 25.316406 11.328125 C 25.347656 11.300781 25.382812 11.273438 25.414062 11.246094 C 25.542969 11.140625 25.679688 11.039062 25.820312 10.9375 C 25.847656 10.917969 25.878906 10.894531 25.910156 10.871094 C 26.15625 10.695312 26.410156 10.535156 26.671875 10.382812 C 26.691406 10.371094 26.691406 10.371094 26.710938 10.359375 C 27.441406 9.9375 28.222656 9.589844 29.035156 9.347656 C 29.046875 9.34375 29.0625 9.339844 29.074219 9.332031 C 29.175781 9.304688 29.277344 9.273438 29.378906 9.246094 C 29.390625 9.242188 29.40625 9.238281 29.417969 9.234375 C 29.769531 9.136719 30.128906 9.066406 30.488281 9.007812 C 30.519531 9.003906 30.554688 8.996094 30.589844 8.992188 C 30.75 8.964844 30.90625 8.945312 31.066406 8.929688 C 31.101562 8.925781 31.140625 8.921875 31.179688 8.917969 C 31.457031 8.894531 31.730469 8.882812 32.011719 8.882812 C 32.027344 8.882812 32.046875 8.882812 32.066406 8.882812 C 32.394531 8.882812 32.71875 8.898438 33.046875 8.941406 C 33.078125 8.941406 33.105469 8.945312 33.136719 8.949219 C 33.65625 9.007812 34.191406 9.128906 34.679688 9.316406 C 34.695312 9.324219 34.710938 9.328125 34.726562 9.335938 C 34.980469 9.433594 35.226562 9.539062 35.472656 9.664062 C 35.480469 9.667969 35.492188 9.675781 35.503906 9.679688 C 36.070312 9.964844 36.570312 10.355469 37.011719 10.800781 C 37.035156 10.824219 37.058594 10.84375 37.082031 10.867188 C 37.175781 10.960938 37.261719 11.058594 37.34375 11.160156 C 37.367188 11.1875 37.386719 11.214844 37.410156 11.242188 C 37.570312 11.433594 37.714844 11.640625 37.847656 11.851562 C 37.855469 11.863281 37.859375 11.875 37.867188 11.886719 C 37.996094 12.09375 38.109375 12.308594 38.222656 12.527344 C 38.230469 12.550781 38.230469 12.550781 38.242188 12.570312 C 38.429688 12.945312 38.578125 13.351562 38.695312 13.753906 C 38.699219 13.761719 38.703125 13.773438 38.703125 13.78125 C 38.726562 13.859375 38.746094 13.933594 38.769531 14.011719 C 38.773438 14.027344 38.777344 14.039062 38.777344 14.050781 C 38.835938 14.269531 38.878906 14.484375 38.917969 14.703125 C 38.925781 14.75 38.9375 14.792969 38.945312 14.839844 C 38.953125 14.886719 38.960938 14.929688 38.96875 14.976562 C 38.976562 15.003906 38.976562 15.003906 38.980469 15.03125 C 39.011719 15.214844 39.03125 15.398438 39.050781 15.585938 C 39.058594 15.640625 39.0625 15.691406 39.070312 15.746094 C 39.117188 16.203125 39.132812 16.65625 39.132812 17.117188 C 39.132812 17.15625 39.132812 17.195312 39.132812 17.238281 C 39.132812 17.621094 39.125 18.003906 39.089844 18.390625 C 39.085938 18.417969 39.082031 18.449219 39.082031 18.476562 C 39.070312 18.574219 39.058594 18.671875 39.046875 18.773438 C 39.042969 18.820312 39.039062 18.863281 39.03125 18.910156 C 39.007812 19.113281 38.984375 19.316406 38.953125 19.515625 C 38.953125 19.53125 38.949219 19.546875 38.949219 19.558594 C 38.933594 19.664062 38.910156 19.769531 38.890625 19.871094 C 38.882812 19.90625 38.875 19.9375 38.871094 19.972656 C 38.773438 20.449219 38.675781 20.929688 38.53125 21.394531 C 38.527344 21.410156 38.523438 21.421875 38.519531 21.4375 C 38.503906 21.480469 38.492188 21.519531 38.480469 21.558594 C 38.472656 21.589844 38.460938 21.625 38.449219 21.65625 C 38.445312 21.667969 38.441406 21.683594 38.4375 21.699219 C 38.425781 21.734375 38.414062 21.773438 38.40625 21.808594 C 38.347656 22.007812 38.277344 22.199219 38.207031 22.394531 C 38.195312 22.421875 38.195312 22.421875 38.1875 22.449219 C 38.140625 22.578125 38.089844 22.707031 38.039062 22.835938 C 38.027344 22.867188 38.015625 22.898438 38.003906 22.925781 C 37.996094 22.945312 37.984375 22.96875 37.976562 22.988281 C 37.972656 23 37.972656 23 37.96875 23.015625 C 37.9375 23.089844 37.90625 23.164062 37.871094 23.234375 C 37.859375 23.28125 37.863281 23.300781 37.875 23.34375 C 37.898438 23.375 37.898438 23.375 37.925781 23.402344 C 37.9375 23.414062 37.945312 23.421875 37.957031 23.433594 C 37.96875 23.445312 37.980469 23.457031 37.992188 23.46875 C 38.007812 23.484375 38.019531 23.496094 38.03125 23.507812 C 38.066406 23.542969 38.101562 23.578125 38.136719 23.613281 C 38.175781 23.648438 38.210938 23.6875 38.25 23.726562 C 38.316406 23.789062 38.378906 23.855469 38.445312 23.921875 C 38.539062 24.015625 38.632812 24.109375 38.726562 24.203125 C 38.882812 24.355469 39.035156 24.507812 39.1875 24.660156 C 39.335938 24.808594 39.484375 24.957031 39.632812 25.105469 C 39.644531 25.113281 39.652344 25.125 39.660156 25.132812 C 39.707031 25.179688 39.753906 25.226562 39.800781 25.269531 C 40.179688 25.652344 40.5625 26.03125 40.941406 26.414062 C 40.867188 26.503906 40.78125 26.589844 40.695312 26.675781 C 40.679688 26.691406 40.664062 26.710938 40.644531 26.726562 C 40.601562 26.769531 40.554688 26.816406 40.511719 26.859375 C 40.460938 26.910156 40.414062 26.957031 40.363281 27.007812 C 40.28125 27.089844 40.195312 27.175781 40.113281 27.261719 C 39.988281 27.382812 39.867188 27.503906 39.746094 27.625 C 39.546875 27.824219 39.351562 28.019531 39.152344 28.21875 C 38.960938 28.410156 38.769531 28.601562 38.574219 28.796875 C 38.558594 28.8125 38.558594 28.8125 38.539062 28.832031 C 38.480469 28.890625 38.421875 28.949219 38.359375 29.007812 C 37.867188 29.503906 37.375 29.996094 36.882812 30.488281 C 36.90625 30.542969 36.9375 30.574219 36.976562 30.617188 C 36.988281 30.625 36.988281 30.625 37 30.636719 C 37.019531 30.660156 37.042969 30.683594 37.066406 30.707031 C 37.085938 30.722656 37.101562 30.738281 37.117188 30.753906 C 37.164062 30.800781 37.210938 30.847656 37.253906 30.894531 C 37.304688 30.941406 37.355469 30.992188 37.402344 31.042969 C 37.488281 31.128906 37.574219 31.210938 37.660156 31.296875 C 37.785156 31.421875 37.910156 31.546875 38.03125 31.667969 C 38.234375 31.871094 38.433594 32.070312 38.636719 32.273438 C 38.832031 32.46875 39.027344 32.664062 39.222656 32.859375 C 39.234375 32.871094 39.246094 32.882812 39.257812 32.894531 C 39.320312 32.953125 39.378906 33.015625 39.441406 33.074219 C 39.941406 33.578125 40.441406 34.078125 40.941406 34.578125 C 40.863281 34.679688 40.769531 34.769531 40.679688 34.859375 C 40.660156 34.878906 40.640625 34.894531 40.621094 34.914062 C 40.574219 34.964844 40.523438 35.015625 40.472656 35.066406 C 40.417969 35.121094 40.363281 35.175781 40.308594 35.226562 C 40.214844 35.324219 40.121094 35.417969 40.027344 35.511719 C 39.890625 35.648438 39.753906 35.78125 39.617188 35.917969 C 39.398438 36.140625 39.175781 36.359375 38.957031 36.582031 C 38.742188 36.796875 38.527344 37.011719 38.3125 37.226562 C 38.296875 37.238281 38.285156 37.25 38.273438 37.265625 C 38.207031 37.332031 38.140625 37.398438 38.074219 37.464844 C 37.523438 38.015625 36.972656 38.5625 36.421875 39.113281 C 36.363281 39.085938 36.320312 39.046875 36.277344 39.003906 C 36.269531 38.992188 36.261719 38.984375 36.25 38.976562 C 36.222656 38.949219 36.195312 38.917969 36.164062 38.890625 C 36.144531 38.867188 36.125 38.847656 36.101562 38.828125 C 36.058594 38.78125 36.011719 38.738281 35.96875 38.695312 C 35.898438 38.621094 35.828125 38.550781 35.757812 38.480469 C 35.644531 38.371094 35.535156 38.257812 35.421875 38.144531 C 35.222656 37.945312 35.023438 37.746094 34.824219 37.546875 C 34.753906 37.476562 34.683594 37.40625 34.613281 37.335938 C 34.570312 37.292969 34.527344 37.25 34.484375 37.203125 C 34.464844 37.183594 34.445312 37.164062 34.421875 37.144531 C 34.292969 37.011719 34.292969 37.011719 34.152344 36.886719 C 34.125 36.863281 34.097656 36.835938 34.070312 36.808594 C 34.054688 36.792969 34.054688 36.792969 34.039062 36.777344 C 34.027344 36.765625 34.015625 36.753906 34.003906 36.742188 C 33.992188 36.730469 33.980469 36.71875 33.96875 36.707031 C 33.945312 36.683594 33.917969 36.660156 33.894531 36.632812 C 33.859375 36.597656 33.820312 36.558594 33.78125 36.523438 C 33.757812 36.5 33.734375 36.472656 33.710938 36.449219 C 33.699219 36.441406 33.6875 36.429688 33.675781 36.417969 C 33.667969 36.40625 33.65625 36.394531 33.644531 36.386719 C 33.636719 36.375 33.628906 36.367188 33.617188 36.359375 C 33.597656 36.335938 33.597656 36.335938 33.597656 36.304688 C 33.589844 36.300781 33.582031 36.296875 33.574219 36.292969 C 33.539062 36.277344 33.515625 36.253906 33.488281 36.226562 C 33.476562 36.21875 33.46875 36.210938 33.460938 36.199219 C 33.449219 36.1875 33.441406 36.179688 33.429688 36.167969 C 33.417969 36.160156 33.410156 36.148438 33.398438 36.140625 C 33.390625 36.128906 33.378906 36.121094 33.371094 36.109375 C 33.363281 36.101562 33.351562 36.09375 33.34375 36.082031 C 33.324219 36.0625 33.324219 36.0625 33.324219 36.03125 C 33.316406 36.027344 33.308594 36.023438 33.300781 36.023438 C 33.261719 36 33.238281 35.976562 33.207031 35.945312 C 33.191406 35.929688 33.191406 35.929688 33.175781 35.914062 C 33.152344 35.886719 33.152344 35.886719 33.152344 35.859375 C 33.136719 35.855469 33.136719 35.855469 33.125 35.847656 C 33.09375 35.832031 33.09375 35.832031 33.082031 35.789062 C 33.0625 35.777344 33.042969 35.769531 33.023438 35.757812 C 32.996094 35.738281 32.996094 35.738281 32.980469 35.714844 C 32.980469 35.707031 32.980469 35.695312 32.980469 35.6875 C 32.964844 35.679688 32.964844 35.679688 32.953125 35.675781 C 32.921875 35.65625 32.921875 35.65625 32.90625 35.613281 C 32.898438 35.613281 32.886719 35.613281 32.878906 35.613281 C 32.878906 35.605469 32.878906 35.597656 32.878906 35.585938 C 32.863281 35.582031 32.851562 35.578125 32.835938 35.570312 C 32.835938 35.5625 32.835938 35.550781 32.835938 35.542969 C 32.824219 35.542969 32.816406 35.542969 32.804688 35.542969 C 32.804688 35.535156 32.804688 35.523438 32.804688 35.515625 C 32.796875 35.515625 32.789062 35.515625 32.777344 35.515625 C 32.777344 35.503906 32.777344 35.496094 32.777344 35.484375 C 32.761719 35.480469 32.75 35.476562 32.734375 35.472656 C 32.734375 35.460938 32.734375 35.453125 32.734375 35.441406 C 32.726562 35.441406 32.714844 35.441406 32.707031 35.441406 C 32.707031 35.433594 32.707031 35.421875 32.707031 35.414062 C 32.691406 35.410156 32.675781 35.402344 32.664062 35.398438 C 32.664062 35.390625 32.664062 35.378906 32.664062 35.371094 C 32.652344 35.371094 32.644531 35.371094 32.632812 35.371094 C 32.632812 35.359375 32.632812 35.351562 32.632812 35.339844 C 32.625 35.339844 32.613281 35.339844 32.605469 35.339844 C 32.605469 35.332031 32.605469 35.320312 32.605469 35.3125 C 32.589844 35.308594 32.578125 35.304688 32.5625 35.296875 C 32.5625 35.289062 32.5625 35.277344 32.5625 35.269531 C 32.550781 35.269531 32.542969 35.269531 32.53125 35.269531 C 32.53125 35.257812 32.53125 35.25 32.53125 35.242188 C 32.519531 35.234375 32.503906 35.230469 32.488281 35.226562 C 32.488281 35.214844 32.488281 35.207031 32.488281 35.195312 C 32.480469 35.195312 32.46875 35.195312 32.460938 35.195312 C 32.460938 35.1875 32.460938 35.179688 32.460938 35.167969 C 32.453125 35.167969 32.441406 35.167969 32.433594 35.167969 C 32.433594 35.160156 32.433594 35.148438 32.433594 35.140625 C 32.417969 35.132812 32.402344 35.128906 32.390625 35.125 C 32.390625 35.117188 32.390625 35.105469 32.390625 35.097656 C 32.378906 35.097656 32.371094 35.097656 32.359375 35.097656 C 32.355469 35.085938 32.351562 35.078125 32.34375 35.066406 C 32.285156 35.074219 32.257812 35.105469 32.21875 35.148438 C 32.210938 35.152344 32.203125 35.160156 32.195312 35.167969 C 32.175781 35.191406 32.152344 35.214844 32.128906 35.238281 C 32.113281 35.253906 32.09375 35.269531 32.078125 35.285156 C 32.03125 35.332031 31.984375 35.378906 31.941406 35.425781 C 31.890625 35.472656 31.839844 35.523438 31.792969 35.574219 C 31.707031 35.660156 31.621094 35.746094 31.535156 35.832031 C 31.410156 35.953125 31.289062 36.078125 31.164062 36.203125 C 30.960938 36.402344 30.761719 36.605469 30.5625 36.804688 C 30.367188 37 30.171875 37.195312 29.976562 37.390625 C 29.964844 37.40625 29.953125 37.417969 29.9375 37.429688 C 29.878906 37.488281 29.816406 37.550781 29.757812 37.609375 C 29.257812 38.109375 28.757812 38.613281 28.253906 39.113281 C 28.210938 39.09375 28.179688 39.070312 28.144531 39.035156 C 28.136719 39.027344 28.125 39.015625 28.113281 39.003906 C 28.105469 38.996094 28.09375 38.984375 28.082031 38.972656 C 28.070312 38.960938 28.058594 38.949219 28.046875 38.933594 C 28.011719 38.902344 27.980469 38.871094 27.945312 38.835938 C 27.910156 38.800781 27.875 38.765625 27.839844 38.730469 C 27.777344 38.667969 27.71875 38.605469 27.65625 38.542969 C 27.558594 38.445312 27.460938 38.347656 27.363281 38.25 C 27.332031 38.214844 27.296875 38.183594 27.265625 38.148438 C 27.253906 38.136719 27.253906 38.136719 27.238281 38.125 C 27.144531 38.03125 27.050781 37.933594 26.957031 37.839844 C 26.945312 37.832031 26.9375 37.824219 26.929688 37.8125 C 26.789062 37.671875 26.648438 37.53125 26.507812 37.390625 C 26.367188 37.246094 26.222656 37.101562 26.078125 36.957031 C 25.988281 36.867188 25.898438 36.777344 25.8125 36.6875 C 25.75 36.628906 25.691406 36.566406 25.628906 36.503906 C 25.59375 36.46875 25.558594 36.433594 25.523438 36.398438 C 25.484375 36.359375 25.449219 36.324219 25.410156 36.285156 C 25.398438 36.273438 25.386719 36.261719 25.375 36.25 C 25.320312 36.191406 25.320312 36.191406 25.242188 36.175781 C 25.203125 36.191406 25.167969 36.207031 25.128906 36.230469 C 25.109375 36.242188 25.109375 36.242188 25.089844 36.253906 C 25.074219 36.261719 25.0625 36.273438 25.046875 36.28125 C 24.925781 36.351562 24.804688 36.421875 24.679688 36.488281 C 24.65625 36.5 24.65625 36.5 24.632812 36.511719 C 24.605469 36.527344 24.578125 36.542969 24.550781 36.558594 C 24.496094 36.589844 24.441406 36.621094 24.386719 36.648438 C 24.222656 36.742188 24.058594 36.828125 23.894531 36.914062 C 23.855469 36.9375 23.8125 36.960938 23.769531 36.980469 C 23.65625 37.042969 23.539062 37.101562 23.417969 37.15625 C 23.367188 37.179688 23.316406 37.207031 23.269531 37.234375 C 23.257812 37.238281 23.25 37.246094 23.238281 37.25 C 23.21875 37.261719 23.199219 37.273438 23.183594 37.285156 C 23.144531 37.304688 23.117188 37.316406 23.070312 37.308594 C 23.03125 37.292969 22.992188 37.277344 22.957031 37.257812 C 22.9375 37.246094 22.914062 37.238281 22.894531 37.226562 C 22.824219 37.191406 22.75 37.15625 22.679688 37.121094 C 22.664062 37.113281 22.652344 37.105469 22.640625 37.101562 C 22.472656 37.015625 22.304688 36.929688 22.140625 36.839844 C 22.054688 36.789062 21.964844 36.742188 21.875 36.695312 C 21.695312 36.601562 21.519531 36.503906 21.34375 36.402344 C 21.304688 36.378906 21.265625 36.359375 21.226562 36.335938 C 21.007812 36.214844 20.792969 36.089844 20.578125 35.960938 C 20.5625 35.949219 20.5625 35.949219 20.542969 35.9375 C 20.253906 35.765625 19.964844 35.585938 19.675781 35.40625 C 19.644531 35.382812 19.609375 35.363281 19.574219 35.34375 C 19.320312 35.179688 19.066406 35.015625 18.816406 34.847656 C 18.777344 34.824219 18.742188 34.796875 18.703125 34.773438 C 18.484375 34.628906 18.269531 34.480469 18.058594 34.332031 C 18.046875 34.324219 18.035156 34.316406 18.023438 34.308594 C 17.984375 34.28125 17.949219 34.257812 17.914062 34.230469 C 17.90625 34.226562 17.894531 34.21875 17.882812 34.210938 C 17.550781 33.976562 17.226562 33.738281 16.902344 33.492188 C 16.851562 33.453125 16.796875 33.410156 16.742188 33.371094 C 16.660156 33.308594 16.582031 33.25 16.503906 33.1875 C 16.484375 33.171875 16.464844 33.15625 16.445312 33.144531 C 16.320312 33.046875 16.191406 32.945312 16.070312 32.84375 C 16.007812 32.792969 15.945312 32.746094 15.882812 32.695312 C 15.800781 32.632812 15.71875 32.566406 15.640625 32.5 C 15.601562 32.464844 15.558594 32.429688 15.515625 32.394531 C 15.4375 32.328125 15.355469 32.261719 15.273438 32.191406 C 15.25 32.171875 15.226562 32.152344 15.203125 32.132812 C 15.039062 31.996094 14.878906 31.855469 14.71875 31.710938 C 14.617188 31.621094 14.617188 31.621094 14.519531 31.535156 C 14.460938 31.484375 14.40625 31.433594 14.351562 31.382812 C 14.308594 31.34375 14.261719 31.300781 14.21875 31.261719 C 14.128906 31.179688 14.039062 31.097656 13.949219 31.011719 C 13.921875 30.988281 13.894531 30.960938 13.867188 30.933594 C 13.730469 30.808594 13.597656 30.679688 13.464844 30.546875 C 13.441406 30.523438 13.421875 30.503906 13.398438 30.480469 C 13.355469 30.4375 13.3125 30.394531 13.265625 30.347656 C 13.210938 30.292969 13.152344 30.234375 13.097656 30.179688 C 13.050781 30.132812 13.007812 30.089844 12.964844 30.046875 C 12.945312 30.027344 12.921875 30.003906 12.902344 29.984375 C 12.871094 29.953125 12.84375 29.925781 12.8125 29.894531 C 12.804688 29.886719 12.796875 29.878906 12.789062 29.871094 C 12.738281 29.820312 12.6875 29.765625 12.640625 29.707031 C 12.617188 29.679688 12.589844 29.65625 12.566406 29.632812 C 12.53125 29.597656 12.5 29.566406 12.472656 29.53125 C 12.417969 29.472656 12.367188 29.414062 12.3125 29.355469 C 12.253906 29.292969 12.191406 29.226562 12.136719 29.160156 C 12.105469 29.128906 12.078125 29.097656 12.046875 29.066406 C 12.003906 29.015625 11.960938 28.964844 11.917969 28.910156 C 11.875 28.855469 11.828125 28.804688 11.78125 28.753906 C 11.722656 28.6875 11.667969 28.625 11.613281 28.554688 C 11.574219 28.511719 11.539062 28.46875 11.5 28.425781 C 11.441406 28.351562 11.382812 28.277344 11.324219 28.203125 C 11.28125 28.148438 11.238281 28.097656 11.195312 28.042969 C 11.097656 27.925781 11.003906 27.800781 10.910156 27.679688 C 10.863281 27.613281 10.8125 27.546875 10.761719 27.484375 C 10.667969 27.359375 10.574219 27.230469 10.484375 27.101562 C 10.472656 27.089844 10.472656 27.089844 10.460938 27.070312 C 10.113281 26.582031 9.78125 26.082031 9.476562 25.5625 C 9.46875 25.550781 9.460938 25.539062 9.453125 25.527344 C 9.238281 25.160156 9.035156 24.789062 8.839844 24.40625 C 8.828125 24.382812 8.816406 24.355469 8.800781 24.328125 C 8.609375 23.957031 8.441406 23.574219 8.277344 23.1875 C 8.273438 23.179688 8.269531 23.167969 8.265625 23.160156 C 8.222656 23.054688 8.179688 22.945312 8.136719 22.839844 C 8.125 22.800781 8.109375 22.765625 8.09375 22.730469 C 8.0625 22.652344 8.035156 22.574219 8.011719 22.5 C 8.003906 22.484375 8.003906 22.484375 8 22.46875 C 7.996094 22.457031 7.996094 22.457031 7.992188 22.441406 C 7.980469 22.414062 7.96875 22.382812 7.957031 22.355469 C 7.9375 22.296875 7.917969 22.242188 7.898438 22.183594 C 7.894531 22.171875 7.890625 22.164062 7.886719 22.152344 C 7.875 22.121094 7.863281 22.085938 7.851562 22.054688 C 7.847656 22.042969 7.84375 22.03125 7.839844 22.019531 C 7.777344 21.835938 7.714844 21.648438 7.660156 21.457031 C 7.65625 21.4375 7.648438 21.421875 7.644531 21.402344 C 7.617188 21.304688 7.589844 21.207031 7.570312 21.105469 C 7.554688 21.042969 7.539062 20.980469 7.519531 20.914062 C 7.488281 20.8125 7.464844 20.710938 7.441406 20.605469 C 7.4375 20.597656 7.4375 20.585938 7.433594 20.578125 C 7.382812 20.34375 7.335938 20.113281 7.292969 19.875 C 7.289062 19.847656 7.28125 19.816406 7.277344 19.785156 C 7.199219 19.394531 7.160156 19 7.117188 18.605469 C 7.113281 18.566406 7.109375 18.527344 7.105469 18.492188 C 7.0625 18.074219 7.050781 17.65625 7.050781 17.234375 C 7.050781 17.199219 7.050781 17.164062 7.050781 17.128906 C 7.054688 16.722656 7.0625 16.316406 7.101562 15.914062 C 7.101562 15.894531 7.101562 15.894531 7.101562 15.875 C 7.117188 15.710938 7.136719 15.546875 7.15625 15.378906 C 7.160156 15.371094 7.160156 15.359375 7.160156 15.347656 C 7.199219 15.070312 7.242188 14.792969 7.300781 14.515625 C 7.304688 14.5 7.308594 14.480469 7.3125 14.460938 C 7.328125 14.402344 7.339844 14.34375 7.351562 14.285156 C 7.355469 14.265625 7.359375 14.25 7.363281 14.230469 C 7.402344 14.058594 7.445312 13.890625 7.503906 13.722656 C 7.535156 13.628906 7.5625 13.535156 7.589844 13.441406 C 7.605469 13.382812 7.625 13.332031 7.648438 13.277344 C 7.652344 13.265625 7.65625 13.25 7.664062 13.238281 C 7.753906 12.996094 7.851562 12.761719 7.964844 12.527344 C 7.96875 12.515625 7.976562 12.503906 7.984375 12.488281 C 8.179688 12.078125 8.421875 11.691406 8.707031 11.332031 C 8.726562 11.304688 8.746094 11.28125 8.765625 11.253906 C 8.914062 11.058594 9.089844 10.882812 9.265625 10.707031 C 9.277344 10.695312 9.292969 10.679688 9.308594 10.664062 C 9.402344 10.570312 9.5 10.480469 9.605469 10.398438 C 9.621094 10.386719 9.636719 10.371094 9.648438 10.359375 C 9.773438 10.253906 9.90625 10.160156 10.039062 10.066406 C 10.046875 10.058594 10.054688 10.054688 10.066406 10.046875 C 10.480469 9.757812 10.945312 9.503906 11.429688 9.347656 C 11.46875 9.335938 11.507812 9.320312 11.546875 9.304688 C 11.621094 9.273438 11.691406 9.25 11.769531 9.226562 C 11.78125 9.222656 11.792969 9.21875 11.808594 9.214844 C 11.953125 9.167969 12.097656 9.132812 12.246094 9.097656 C 12.28125 9.089844 12.320312 9.078125 12.355469 9.070312 C 12.457031 9.046875 12.554688 9.023438 12.660156 9.015625 C 12.667969 9.011719 12.679688 9.003906 12.6875 9 C 12.714844 8.996094 12.742188 8.992188 12.769531 8.988281 C 12.789062 8.984375 12.804688 8.984375 12.824219 8.980469 C 12.839844 8.980469 12.859375 8.976562 12.878906 8.972656 C 12.890625 8.972656 12.898438 8.972656 12.910156 8.96875 C 13.050781 8.953125 13.195312 8.933594 13.335938 8.917969 C 13.351562 8.917969 13.367188 8.914062 13.382812 8.914062 C 13.625 8.890625 13.867188 8.882812 14.109375 8.882812 Z M 14.109375 8.882812 "/>
<path style=" stroke:none;fill-rule:nonzero;fill:rgb(0%,0%,0%);fill-opacity:1;" d="M 28.226562 23.703125 C 28.28125 23.726562 28.3125 23.757812 28.355469 23.800781 C 28.363281 23.808594 28.367188 23.8125 28.375 23.820312 C 28.398438 23.84375 28.421875 23.867188 28.445312 23.890625 C 28.460938 23.90625 28.476562 23.921875 28.496094 23.941406 C 28.539062 23.984375 28.585938 24.03125 28.632812 24.078125 C 28.679688 24.128906 28.730469 24.175781 28.78125 24.226562 C 28.867188 24.3125 28.953125 24.398438 29.039062 24.484375 C 29.160156 24.605469 29.285156 24.730469 29.410156 24.855469 C 29.609375 25.054688 29.8125 25.257812 30.011719 25.457031 C 30.207031 25.652344 30.402344 25.847656 30.597656 26.042969 C 30.609375 26.058594 30.621094 26.070312 30.632812 26.082031 C 30.695312 26.140625 30.753906 26.203125 30.816406 26.261719 C 31.316406 26.761719 31.816406 27.265625 32.316406 27.765625 C 32.40625 27.691406 32.488281 27.609375 32.570312 27.527344 C 32.585938 27.511719 32.601562 27.496094 32.617188 27.480469 C 32.660156 27.4375 32.703125 27.398438 32.746094 27.355469 C 32.789062 27.308594 32.835938 27.261719 32.882812 27.21875 C 32.960938 27.136719 33.039062 27.058594 33.117188 26.980469 C 33.230469 26.863281 33.347656 26.75 33.460938 26.636719 C 33.644531 26.449219 33.832031 26.265625 34.015625 26.078125 C 34.027344 26.066406 34.039062 26.058594 34.050781 26.046875 C 34.207031 25.886719 34.367188 25.730469 34.523438 25.570312 C 34.535156 25.5625 34.546875 25.550781 34.558594 25.539062 C 34.570312 25.527344 34.578125 25.515625 34.589844 25.503906 C 34.777344 25.320312 34.960938 25.132812 35.144531 24.949219 C 35.257812 24.835938 35.375 24.722656 35.488281 24.605469 C 35.566406 24.527344 35.644531 24.449219 35.722656 24.371094 C 35.765625 24.328125 35.8125 24.28125 35.855469 24.238281 C 35.898438 24.195312 35.9375 24.15625 35.980469 24.113281 C 35.996094 24.097656 36.011719 24.082031 36.027344 24.066406 C 36.046875 24.046875 36.066406 24.027344 36.085938 24.007812 C 36.097656 23.996094 36.109375 23.984375 36.121094 23.972656 C 36.148438 23.949219 36.148438 23.949219 36.175781 23.949219 C 36.179688 23.941406 36.183594 23.933594 36.1875 23.921875 C 36.207031 23.890625 36.222656 23.871094 36.25 23.847656 C 36.257812 23.847656 36.265625 23.847656 36.277344 23.847656 C 36.28125 23.839844 36.28125 23.832031 36.285156 23.824219 C 36.3125 23.777344 36.351562 23.742188 36.390625 23.703125 C 36.40625 23.710938 36.421875 23.714844 36.4375 23.71875 C 36.4375 23.730469 36.4375 23.738281 36.4375 23.746094 C 36.449219 23.753906 36.449219 23.753906 36.464844 23.757812 C 36.492188 23.777344 36.492188 23.777344 36.507812 23.820312 C 36.515625 23.820312 36.527344 23.820312 36.535156 23.820312 C 36.535156 23.828125 36.535156 23.839844 36.535156 23.847656 C 36.550781 23.855469 36.566406 23.859375 36.578125 23.863281 C 36.578125 23.871094 36.578125 23.882812 36.578125 23.890625 C 36.589844 23.890625 36.597656 23.890625 36.609375 23.890625 C 36.609375 23.902344 36.609375 23.910156 36.609375 23.921875 C 36.617188 23.921875 36.628906 23.921875 36.636719 23.921875 C 36.660156 23.941406 36.660156 23.941406 36.679688 23.964844 C 36.679688 23.972656 36.679688 23.984375 36.679688 23.992188 C 36.691406 23.992188 36.699219 23.992188 36.710938 23.992188 C 36.710938 24.003906 36.710938 24.011719 36.710938 24.023438 C 36.722656 24.027344 36.738281 24.03125 36.753906 24.035156 C 36.753906 24.046875 36.753906 24.054688 36.753906 24.066406 C 36.761719 24.066406 36.773438 24.066406 36.78125 24.066406 C 36.78125 24.074219 36.78125 24.082031 36.78125 24.09375 C 36.789062 24.09375 36.800781 24.09375 36.808594 24.09375 C 36.832031 24.113281 36.832031 24.113281 36.851562 24.144531 C 36.882812 24.183594 36.882812 24.183594 36.925781 24.207031 C 36.925781 24.21875 36.925781 24.226562 36.925781 24.238281 C 36.933594 24.238281 36.945312 24.238281 36.953125 24.238281 C 36.953125 24.246094 36.953125 24.257812 36.953125 24.265625 C 36.964844 24.265625 36.972656 24.265625 36.984375 24.265625 C 37.007812 24.289062 37.007812 24.289062 37.03125 24.320312 C 37.0625 24.359375 37.085938 24.382812 37.125 24.410156 C 37.125 24.421875 37.125 24.429688 37.125 24.4375 C 37.136719 24.4375 37.144531 24.4375 37.15625 24.4375 C 37.175781 24.460938 37.175781 24.460938 37.199219 24.488281 C 37.230469 24.527344 37.230469 24.527344 37.269531 24.554688 C 37.269531 24.5625 37.269531 24.574219 37.269531 24.582031 C 37.28125 24.582031 37.289062 24.582031 37.300781 24.582031 C 37.316406 24.605469 37.332031 24.625 37.351562 24.644531 C 37.371094 24.671875 37.394531 24.691406 37.421875 24.710938 C 37.46875 24.75 37.503906 24.796875 37.542969 24.84375 C 37.5625 24.855469 37.578125 24.871094 37.59375 24.886719 C 37.640625 24.925781 37.679688 24.96875 37.71875 25.015625 C 37.734375 25.03125 37.75 25.046875 37.765625 25.066406 C 37.792969 25.089844 37.820312 25.117188 37.847656 25.144531 C 37.90625 25.203125 37.964844 25.261719 38.023438 25.320312 C 38.046875 25.347656 38.074219 25.371094 38.097656 25.398438 C 38.132812 25.433594 38.171875 25.472656 38.207031 25.507812 C 38.21875 25.519531 38.230469 25.53125 38.242188 25.542969 C 38.289062 25.589844 38.339844 25.636719 38.390625 25.683594 C 38.46875 25.75 38.539062 25.816406 38.609375 25.886719 C 38.621094 25.898438 38.621094 25.898438 38.628906 25.910156 C 38.667969 25.949219 38.707031 25.984375 38.746094 26.023438 C 38.777344 26.054688 38.808594 26.085938 38.839844 26.117188 C 38.878906 26.152344 38.914062 26.191406 38.953125 26.230469 C 38.96875 26.242188 38.980469 26.257812 38.996094 26.273438 C 39.015625 26.292969 39.035156 26.3125 39.058594 26.332031 C 39.070312 26.34375 39.078125 26.355469 39.089844 26.367188 C 39.113281 26.398438 39.113281 26.398438 39.113281 26.425781 C 39.09375 26.46875 39.066406 26.492188 39.035156 26.527344 C 39.027344 26.53125 39.023438 26.539062 39.015625 26.546875 C 38.992188 26.570312 38.96875 26.59375 38.945312 26.617188 C 38.929688 26.632812 38.910156 26.648438 38.894531 26.664062 C 38.847656 26.710938 38.804688 26.757812 38.757812 26.804688 C 38.707031 26.851562 38.660156 26.902344 38.609375 26.953125 C 38.523438 27.035156 38.4375 27.121094 38.351562 27.207031 C 38.226562 27.332031 38.101562 27.457031 37.980469 27.578125 C 37.777344 27.78125 37.578125 27.980469 37.375 28.183594 C 37.179688 28.378906 36.984375 28.574219 36.789062 28.769531 C 36.777344 28.78125 36.765625 28.792969 36.753906 28.804688 C 36.691406 28.863281 36.632812 28.925781 36.570312 28.984375 C 36.070312 29.488281 35.570312 29.988281 35.066406 30.488281 C 35.089844 30.539062 35.121094 30.574219 35.164062 30.613281 C 35.167969 30.621094 35.175781 30.628906 35.183594 30.636719 C 35.207031 30.660156 35.230469 30.683594 35.253906 30.703125 C 35.269531 30.722656 35.285156 30.738281 35.300781 30.753906 C 35.347656 30.800781 35.394531 30.84375 35.441406 30.890625 C 35.488281 30.941406 35.539062 30.988281 35.585938 31.039062 C 35.671875 31.125 35.757812 31.207031 35.84375 31.292969 C 35.980469 31.429688 36.113281 31.5625 36.25 31.699219 C 36.296875 31.742188 36.339844 31.789062 36.386719 31.835938 C 36.40625 31.851562 36.40625 31.851562 36.421875 31.871094 C 36.554688 32 36.683594 32.132812 36.816406 32.261719 C 36.828125 32.273438 36.839844 32.289062 36.851562 32.300781 C 37.046875 32.492188 37.242188 32.6875 37.4375 32.882812 C 37.636719 33.082031 37.835938 33.28125 38.035156 33.480469 C 38.160156 33.601562 38.28125 33.726562 38.40625 33.847656 C 38.492188 33.933594 38.574219 34.015625 38.660156 34.101562 C 38.707031 34.148438 38.757812 34.199219 38.804688 34.246094 C 38.851562 34.289062 38.894531 34.335938 38.9375 34.378906 C 38.957031 34.394531 38.972656 34.414062 38.988281 34.429688 C 39.011719 34.449219 39.03125 34.472656 39.054688 34.492188 C 39.066406 34.507812 39.078125 34.519531 39.089844 34.53125 C 39.113281 34.5625 39.113281 34.5625 39.113281 34.59375 C 39.097656 34.625 39.082031 34.644531 39.054688 34.671875 C 39.046875 34.679688 39.039062 34.6875 39.027344 34.699219 C 39.015625 34.707031 39.007812 34.71875 38.996094 34.730469 C 38.984375 34.742188 38.972656 34.75 38.964844 34.761719 C 38.925781 34.800781 38.890625 34.835938 38.851562 34.875 C 38.824219 34.898438 38.800781 34.925781 38.773438 34.953125 C 38.714844 35.007812 38.660156 35.066406 38.601562 35.125 C 38.519531 35.207031 38.4375 35.289062 38.355469 35.371094 C 38.222656 35.503906 38.089844 35.636719 37.953125 35.769531 C 37.824219 35.898438 37.695312 36.027344 37.566406 36.160156 C 37.558594 36.167969 37.550781 36.175781 37.539062 36.183594 C 37.5 36.222656 37.460938 36.261719 37.421875 36.304688 C 37.085938 36.636719 36.753906 36.96875 36.421875 37.300781 C 36.367188 37.277344 36.335938 37.246094 36.292969 37.203125 C 36.285156 37.199219 36.28125 37.191406 36.273438 37.183594 C 36.25 37.160156 36.226562 37.136719 36.203125 37.113281 C 36.1875 37.097656 36.171875 37.082031 36.152344 37.0625 C 36.109375 37.019531 36.0625 36.972656 36.015625 36.925781 C 35.964844 36.878906 35.917969 36.828125 35.867188 36.777344 C 35.78125 36.691406 35.695312 36.605469 35.609375 36.519531 C 35.488281 36.398438 35.363281 36.273438 35.238281 36.148438 C 35.039062 35.949219 34.835938 35.746094 34.636719 35.546875 C 34.441406 35.351562 34.246094 35.15625 34.050781 34.960938 C 34.03125 34.941406 34.03125 34.941406 34.015625 34.921875 C 33.953125 34.863281 33.894531 34.800781 33.832031 34.742188 C 33.332031 34.242188 32.832031 33.738281 32.332031 33.238281 C 32.238281 33.316406 32.152344 33.402344 32.066406 33.484375 C 32.050781 33.503906 32.035156 33.519531 32.019531 33.535156 C 31.972656 33.582031 31.929688 33.625 31.882812 33.671875 C 31.835938 33.71875 31.785156 33.769531 31.738281 33.816406 C 31.652344 33.902344 31.566406 33.984375 31.484375 34.070312 C 31.363281 34.191406 31.238281 34.3125 31.117188 34.4375 C 30.921875 34.632812 30.722656 34.832031 30.523438 35.03125 C 30.332031 35.222656 30.140625 35.414062 29.949219 35.605469 C 29.9375 35.617188 29.925781 35.628906 29.914062 35.640625 C 29.851562 35.703125 29.792969 35.761719 29.734375 35.820312 C 29.242188 36.3125 28.75 36.804688 28.253906 37.300781 C 28.210938 37.28125 28.183594 37.257812 28.148438 37.226562 C 28.136719 37.210938 28.136719 37.210938 28.121094 37.199219 C 28.109375 37.1875 28.101562 37.175781 28.089844 37.167969 C 28.074219 37.152344 28.074219 37.152344 28.058594 37.132812 C 28.019531 37.097656 27.984375 37.0625 27.945312 37.023438 C 27.921875 36.996094 27.894531 36.972656 27.867188 36.945312 C 27.796875 36.875 27.726562 36.804688 27.652344 36.730469 C 27.609375 36.6875 27.566406 36.644531 27.519531 36.597656 C 27.398438 36.476562 27.273438 36.351562 27.152344 36.230469 C 27.140625 36.222656 27.132812 36.214844 27.125 36.207031 C 27.109375 36.191406 27.09375 36.171875 27.078125 36.15625 C 27.070312 36.148438 27.0625 36.140625 27.054688 36.132812 C 27.046875 36.125 27.039062 36.117188 27.03125 36.109375 C 26.902344 35.980469 26.773438 35.851562 26.644531 35.722656 C 26.511719 35.59375 26.378906 35.460938 26.246094 35.328125 C 26.171875 35.253906 26.097656 35.179688 26.023438 35.105469 C 25.953125 35.035156 25.882812 34.964844 25.816406 34.894531 C 25.789062 34.871094 25.761719 34.84375 25.738281 34.820312 C 25.703125 34.785156 25.667969 34.75 25.632812 34.714844 C 25.617188 34.699219 25.617188 34.699219 25.601562 34.683594 C 25.59375 34.675781 25.582031 34.664062 25.574219 34.65625 C 25.566406 34.648438 25.558594 34.640625 25.550781 34.632812 C 25.535156 34.605469 25.535156 34.605469 25.535156 34.578125 C 25.554688 34.539062 25.582031 34.511719 25.613281 34.480469 C 25.625 34.46875 25.625 34.46875 25.632812 34.457031 C 25.65625 34.433594 25.679688 34.410156 25.703125 34.390625 C 25.71875 34.371094 25.734375 34.355469 25.753906 34.339844 C 25.796875 34.292969 25.84375 34.246094 25.890625 34.203125 C 25.941406 34.152344 25.988281 34.101562 26.039062 34.054688 C 26.125 33.96875 26.210938 33.882812 26.296875 33.796875 C 26.421875 33.671875 26.542969 33.546875 26.667969 33.425781 C 26.871094 33.222656 27.070312 33.023438 27.273438 32.820312 C 27.46875 32.625 27.664062 32.429688 27.859375 32.234375 C 27.871094 32.222656 27.882812 32.210938 27.894531 32.199219 C 27.957031 32.140625 28.015625 32.078125 28.078125 32.019531 C 28.578125 31.519531 29.078125 31.015625 29.582031 30.515625 C 29.558594 30.464844 29.527344 30.429688 29.484375 30.390625 C 29.480469 30.382812 29.472656 30.375 29.464844 30.367188 C 29.441406 30.34375 29.417969 30.324219 29.394531 30.300781 C 29.378906 30.285156 29.363281 30.265625 29.347656 30.25 C 29.300781 30.203125 29.253906 30.160156 29.207031 30.113281 C 29.160156 30.0625 29.109375 30.015625 29.0625 29.964844 C 28.976562 29.882812 28.890625 29.796875 28.804688 29.710938 C 28.667969 29.574219 28.535156 29.441406 28.398438 29.308594 C 28.351562 29.261719 28.308594 29.214844 28.261719 29.167969 C 28.25 29.15625 28.238281 29.144531 28.226562 29.132812 C 28.09375 29.003906 27.964844 28.871094 27.832031 28.742188 C 27.820312 28.730469 27.808594 28.71875 27.796875 28.703125 C 27.601562 28.511719 27.40625 28.316406 27.210938 28.121094 C 27.011719 27.921875 26.8125 27.722656 26.613281 27.523438 C 26.488281 27.402344 26.367188 27.277344 26.242188 27.15625 C 26.15625 27.074219 26.074219 26.988281 25.988281 26.902344 C 25.941406 26.855469 25.890625 26.804688 25.84375 26.757812 C 25.796875 26.714844 25.753906 26.667969 25.707031 26.625 C 25.691406 26.609375 25.675781 26.59375 25.660156 26.578125 C 25.636719 26.554688 25.617188 26.53125 25.59375 26.511719 C 25.582031 26.5 25.570312 26.488281 25.558594 26.472656 C 25.535156 26.441406 25.535156 26.441406 25.535156 26.410156 C 25.550781 26.378906 25.566406 26.359375 25.589844 26.335938 C 25.601562 26.324219 25.609375 26.316406 25.621094 26.304688 C 25.628906 26.296875 25.640625 26.285156 25.652344 26.273438 C 25.667969 26.257812 25.667969 26.257812 25.683594 26.242188 C 25.722656 26.203125 25.757812 26.167969 25.796875 26.132812 C 25.820312 26.105469 25.847656 26.078125 25.875 26.050781 C 25.933594 25.996094 25.988281 25.9375 26.046875 25.882812 C 26.128906 25.800781 26.210938 25.71875 26.292969 25.632812 C 26.425781 25.5 26.558594 25.367188 26.695312 25.234375 C 26.824219 25.105469 26.953125 24.976562 27.082031 24.847656 C 27.089844 24.839844 27.097656 24.832031 27.105469 24.820312 C 27.148438 24.78125 27.1875 24.742188 27.226562 24.703125 C 27.5625 24.371094 27.894531 24.035156 28.226562 23.703125 Z M 28.226562 23.703125 "/>
</g>
</svg>
